<svg width="830" height="220" viewBox="0 0 830 220" fill="none" xmlns="http://www.w3.org/2000/svg">
<g clip-path="url(#clip0_2_2)">
<path d="M257.762 131.64C254.007 131.64 250.807 130.936 248.162 129.528C245.559 128.12 243.554 126.136 242.146 123.576C240.78 121.016 240.012 118.008 239.842 114.552C239.799 112.675 239.778 110.691 239.778 108.6C239.778 106.467 239.799 104.44 239.842 102.52C240.012 99.064 240.78 96.0773 242.146 93.56C243.554 91.0427 245.58 89.08 248.226 87.672C250.871 86.264 254.05 85.56 257.762 85.56C260.791 85.56 263.415 85.9867 265.634 86.84C267.852 87.6933 269.666 88.7813 271.074 90.104C272.524 91.384 273.591 92.728 274.274 94.136C274.999 95.544 275.383 96.7813 275.426 97.848C275.468 98.232 275.362 98.552 275.106 98.808C274.85 99.0213 274.508 99.128 274.082 99.128H270.306C269.879 99.128 269.559 99.0427 269.346 98.872C269.175 98.7013 269.004 98.4027 268.833 97.976C268.449 96.8667 267.81 95.7787 266.914 94.712C266.06 93.6453 264.887 92.7707 263.394 92.088C261.943 91.3627 260.066 91 257.762 91C254.391 91 251.66 91.9173 249.57 93.752C247.522 95.5867 246.412 98.616 246.242 102.84C246.114 106.637 246.114 110.435 246.242 114.232C246.412 118.499 247.543 121.571 249.634 123.448C251.724 125.283 254.455 126.2 257.826 126.2C260.087 126.2 262.092 125.795 263.842 124.984C265.634 124.131 267.042 122.829 268.066 121.08C269.09 119.331 269.602 117.112 269.602 114.424V111.736H260.002C259.575 111.736 259.212 111.608 258.914 111.352C258.658 111.053 258.53 110.669 258.53 110.2V108.152C258.53 107.683 258.658 107.32 258.914 107.064C259.212 106.765 259.575 106.616 260.002 106.616H274.466C274.935 106.616 275.298 106.765 275.554 107.064C275.81 107.32 275.938 107.683 275.938 108.152V114.296C275.938 117.795 275.212 120.845 273.762 123.448C272.354 126.051 270.284 128.077 267.554 129.528C264.823 130.936 261.559 131.64 257.762 131.64ZM285.708 131C285.281 131 284.919 130.872 284.62 130.616C284.364 130.317 284.236 129.955 284.236 129.528V99.256C284.236 98.8293 284.364 98.4667 284.62 98.168C284.919 97.8693 285.281 97.72 285.708 97.72H288.652C289.079 97.72 289.441 97.8693 289.74 98.168C290.039 98.4667 290.188 98.8293 290.188 99.256V102.072C291.041 100.621 292.215 99.5333 293.708 98.808C295.201 98.0827 296.993 97.72 299.084 97.72H301.644C302.071 97.72 302.412 97.8693 302.668 98.168C302.924 98.424 303.052 98.7653 303.052 99.192V101.816C303.052 102.243 302.924 102.584 302.668 102.84C302.412 103.096 302.071 103.224 301.644 103.224H297.804C295.5 103.224 293.687 103.907 292.364 105.272C291.041 106.595 290.38 108.408 290.38 110.712V129.528C290.38 129.955 290.231 130.317 289.932 130.616C289.633 130.872 289.271 131 288.844 131H285.708ZM317.329 131.64C315.195 131.64 313.254 131.213 311.505 130.36C309.755 129.507 308.347 128.355 307.281 126.904C306.214 125.453 305.681 123.811 305.681 121.976C305.681 119.032 306.875 116.685 309.265 114.936C311.654 113.187 314.769 112.035 318.609 111.48L328.145 110.136V108.28C328.145 106.232 327.547 104.632 326.353 103.48C325.201 102.328 323.302 101.752 320.657 101.752C318.737 101.752 317.179 102.136 315.985 102.904C314.833 103.672 314.022 104.653 313.553 105.848C313.297 106.488 312.849 106.808 312.209 106.808H309.329C308.859 106.808 308.497 106.68 308.241 106.424C308.027 106.125 307.921 105.784 307.921 105.4C307.921 104.76 308.155 103.971 308.625 103.032C309.137 102.093 309.905 101.176 310.929 100.28C311.953 99.384 313.254 98.6373 314.833 98.04C316.454 97.4 318.417 97.08 320.721 97.08C323.281 97.08 325.435 97.4213 327.185 98.104C328.934 98.744 330.299 99.6187 331.281 100.728C332.305 101.837 333.03 103.096 333.457 104.504C333.926 105.912 334.161 107.341 334.161 108.792V129.528C334.161 129.955 334.011 130.317 333.713 130.616C333.457 130.872 333.115 131 332.689 131H329.745C329.275 131 328.913 130.872 328.657 130.616C328.401 130.317 328.273 129.955 328.273 129.528V126.776C327.718 127.544 326.971 128.312 326.033 129.08C325.094 129.805 323.921 130.424 322.513 130.936C321.105 131.405 319.377 131.64 317.329 131.64ZM318.673 126.84C320.422 126.84 322.022 126.477 323.473 125.752C324.923 124.984 326.054 123.811 326.865 122.232C327.718 120.653 328.145 118.669 328.145 116.28V114.488L320.721 115.576C317.691 116.003 315.409 116.728 313.873 117.752C312.337 118.733 311.569 119.992 311.569 121.528C311.569 122.723 311.91 123.725 312.593 124.536C313.318 125.304 314.214 125.88 315.281 126.264C316.39 126.648 317.521 126.84 318.673 126.84ZM344.897 143.16C344.47 143.16 344.108 143.011 343.809 142.712C343.553 142.456 343.425 142.115 343.425 141.688V99.192C343.425 98.7653 343.553 98.424 343.809 98.168C344.108 97.8693 344.47 97.72 344.897 97.72H347.841C348.268 97.72 348.609 97.8693 348.865 98.168C349.164 98.424 349.313 98.7653 349.313 99.192V102.008C350.337 100.6 351.702 99.4267 353.409 98.488C355.116 97.5493 357.249 97.08 359.809 97.08C362.198 97.08 364.225 97.4853 365.889 98.296C367.596 99.1067 368.982 100.216 370.049 101.624C371.158 103.032 371.99 104.632 372.545 106.424C373.1 108.216 373.398 110.136 373.441 112.184C373.484 112.867 373.505 113.592 373.505 114.36C373.505 115.128 373.484 115.853 373.441 116.536C373.398 118.541 373.1 120.461 372.545 122.296C371.99 124.088 371.158 125.688 370.049 127.096C368.982 128.461 367.596 129.571 365.889 130.424C364.225 131.235 362.198 131.64 359.809 131.64C357.334 131.64 355.244 131.192 353.537 130.296C351.873 129.357 350.508 128.205 349.441 126.84V141.688C349.441 142.115 349.313 142.456 349.057 142.712C348.801 143.011 348.438 143.16 347.969 143.16H344.897ZM358.465 126.456C360.684 126.456 362.412 125.987 363.649 125.048C364.929 124.067 365.846 122.808 366.401 121.272C366.956 119.693 367.276 118.008 367.361 116.216C367.404 114.979 367.404 113.741 367.361 112.504C367.276 110.712 366.956 109.048 366.401 107.512C365.846 105.933 364.929 104.675 363.649 103.736C362.412 102.755 360.684 102.264 358.465 102.264C356.374 102.264 354.668 102.755 353.345 103.736C352.065 104.717 351.105 105.976 350.465 107.512C349.868 109.005 349.526 110.541 349.441 112.12C349.398 112.803 349.377 113.613 349.377 114.552C349.377 115.491 349.398 116.323 349.441 117.048C349.484 118.541 349.825 120.013 350.465 121.464C351.148 122.915 352.15 124.109 353.473 125.048C354.796 125.987 356.46 126.456 358.465 126.456ZM383.022 131C382.595 131 382.233 130.872 381.934 130.616C381.678 130.317 381.55 129.955 381.55 129.528V87.032C381.55 86.6053 381.678 86.264 381.934 86.008C382.233 85.7093 382.595 85.56 383.022 85.56H386.222C386.691 85.56 387.054 85.7093 387.31 86.008C387.566 86.264 387.694 86.6053 387.694 87.032V101.944C388.846 100.493 390.254 99.32 391.918 98.424C393.582 97.528 395.694 97.08 398.254 97.08C401.027 97.08 403.374 97.6987 405.294 98.936C407.257 100.131 408.729 101.816 409.71 103.992C410.734 106.125 411.246 108.621 411.246 111.48V129.528C411.246 129.955 411.118 130.317 410.862 130.616C410.606 130.872 410.243 131 409.774 131H406.574C406.147 131 405.785 130.872 405.486 130.616C405.23 130.317 405.102 129.955 405.102 129.528V111.8C405.102 108.813 404.377 106.488 402.926 104.824C401.475 103.117 399.342 102.264 396.526 102.264C393.881 102.264 391.747 103.117 390.126 104.824C388.505 106.488 387.694 108.813 387.694 111.8V129.528C387.694 129.955 387.566 130.317 387.31 130.616C387.054 130.872 386.691 131 386.222 131H383.022ZM450.182 135.16C449.627 135.16 449.179 134.968 448.838 134.584C448.497 134.243 448.219 133.944 448.006 133.688L445.382 130.104C443.078 131.128 440.411 131.64 437.382 131.64C433.713 131.64 430.577 131.021 427.974 129.784C425.414 128.504 423.409 126.563 421.958 123.96C420.55 121.315 419.782 118.008 419.654 114.04C419.611 112.163 419.59 110.371 419.59 108.664C419.59 106.915 419.611 105.101 419.654 103.224C419.782 99.2987 420.593 96.0347 422.086 93.432C423.579 90.7867 425.627 88.824 428.23 87.544C430.875 86.2213 433.926 85.56 437.382 85.56C440.881 85.56 443.931 86.2213 446.534 87.544C449.179 88.824 451.249 90.7867 452.742 93.432C454.235 96.0347 455.025 99.2987 455.11 103.224C455.195 105.101 455.238 106.915 455.238 108.664C455.238 110.371 455.195 112.163 455.11 114.04C454.897 119.928 453.361 124.301 450.502 127.16L454.726 133.176C454.769 133.219 454.811 133.283 454.854 133.368C454.897 133.496 454.918 133.667 454.918 133.88C454.961 134.221 454.854 134.52 454.598 134.776C454.342 135.032 454.022 135.16 453.638 135.16H450.182ZM437.382 126.2C440.625 126.2 443.291 125.219 445.382 123.256C447.473 121.293 448.603 118.115 448.774 113.72C448.859 111.8 448.902 110.093 448.902 108.6C448.902 107.064 448.859 105.357 448.774 103.48C448.689 100.536 448.134 98.1467 447.11 96.312C446.129 94.4773 444.806 93.1333 443.142 92.28C441.478 91.4267 439.558 91 437.382 91C435.291 91 433.393 91.4267 431.686 92.28C430.022 93.1333 428.699 94.4773 427.718 96.312C426.737 98.1467 426.182 100.536 426.054 103.48C426.011 105.357 425.99 107.064 425.99 108.6C425.99 110.093 426.011 111.8 426.054 113.72C426.225 118.115 427.355 121.293 429.446 123.256C431.537 125.219 434.182 126.2 437.382 126.2ZM466.103 131C465.633 131 465.271 130.872 465.015 130.616C464.759 130.317 464.631 129.955 464.631 129.528V87.672C464.631 87.2453 464.759 86.904 465.015 86.648C465.271 86.3493 465.633 86.2 466.103 86.2H469.495C469.921 86.2 470.263 86.3493 470.519 86.648C470.775 86.904 470.903 87.2453 470.903 87.672V125.432H492.215C492.684 125.432 493.047 125.581 493.303 125.88C493.559 126.136 493.687 126.499 493.687 126.968V129.528C493.687 129.955 493.559 130.317 493.303 130.616C493.047 130.872 492.684 131 492.215 131H466.103ZM528.005 131.64C525.829 131.64 523.76 131.384 521.797 130.872C519.877 130.317 518.149 129.485 516.613 128.376C515.12 127.224 513.925 125.795 513.029 124.088C512.133 122.381 511.642 120.376 511.557 118.072C511.557 117.688 511.685 117.368 511.941 117.112C512.197 116.813 512.538 116.664 512.965 116.664H516.421C516.89 116.664 517.253 116.813 517.509 117.112C517.808 117.368 518 117.709 518.085 118.136C518.256 120.056 518.81 121.613 519.749 122.808C520.688 123.96 521.882 124.813 523.333 125.368C524.784 125.923 526.384 126.2 528.133 126.2C531.376 126.2 533.85 125.133 535.557 123C537.264 120.867 538.117 118.029 538.117 114.488V91.768H515.397C514.97 91.768 514.608 91.64 514.309 91.384C514.053 91.0853 513.925 90.7227 513.925 90.296V87.672C513.925 87.2453 514.053 86.904 514.309 86.648C514.608 86.3493 514.97 86.2 515.397 86.2H542.981C543.45 86.2 543.813 86.3493 544.069 86.648C544.368 86.904 544.517 87.2667 544.517 87.736V114.616C544.517 118.072 543.856 121.08 542.533 123.64C541.21 126.2 539.333 128.184 536.901 129.592C534.469 130.957 531.504 131.64 528.005 131.64ZM567.672 131.64C563.277 131.64 559.778 130.296 557.176 127.608C554.573 124.877 553.144 121.165 552.888 116.472C552.845 115.917 552.824 115.213 552.824 114.36C552.824 113.464 552.845 112.739 552.888 112.184C553.058 109.155 553.762 106.509 555 104.248C556.237 101.944 557.922 100.173 560.056 98.936C562.232 97.6987 564.77 97.08 567.672 97.08C570.914 97.08 573.624 97.7627 575.8 99.128C578.018 100.493 579.704 102.435 580.856 104.952C582.008 107.469 582.583 110.413 582.583 113.784V114.872C582.583 115.341 582.434 115.704 582.136 115.96C581.88 116.216 581.538 116.344 581.112 116.344H558.968C558.968 116.387 558.968 116.472 558.968 116.6C558.968 116.728 558.968 116.835 558.968 116.92C559.053 118.669 559.437 120.312 560.12 121.848C560.802 123.341 561.784 124.557 563.064 125.496C564.344 126.435 565.88 126.904 567.672 126.904C569.208 126.904 570.488 126.669 571.512 126.2C572.536 125.731 573.368 125.219 574.008 124.664C574.648 124.067 575.074 123.619 575.288 123.32C575.672 122.765 575.97 122.445 576.184 122.36C576.397 122.232 576.738 122.168 577.208 122.168H580.28C580.706 122.168 581.048 122.296 581.304 122.552C581.602 122.765 581.73 123.085 581.688 123.512C581.645 124.152 581.304 124.941 580.664 125.88C580.024 126.776 579.106 127.672 577.912 128.568C576.717 129.464 575.266 130.211 573.56 130.808C571.853 131.363 569.89 131.64 567.672 131.64ZM558.968 111.928H576.504V111.736C576.504 109.816 576.141 108.109 575.416 106.616C574.733 105.123 573.73 103.949 572.408 103.096C571.085 102.2 569.506 101.752 567.672 101.752C565.837 101.752 564.258 102.2 562.936 103.096C561.656 103.949 560.674 105.123 559.992 106.616C559.309 108.109 558.968 109.816 558.968 111.736V111.928ZM603.041 131C600.651 131 598.71 130.552 597.217 129.656C595.723 128.717 594.635 127.416 593.953 125.752C593.27 124.045 592.929 122.04 592.929 119.736V102.84H587.937C587.51 102.84 587.147 102.712 586.849 102.456C586.593 102.157 586.465 101.795 586.465 101.368V99.192C586.465 98.7653 586.593 98.424 586.849 98.168C587.147 97.8693 587.51 97.72 587.937 97.72H592.929V87.032C592.929 86.6053 593.057 86.264 593.312 86.008C593.611 85.7093 593.974 85.56 594.401 85.56H597.409C597.835 85.56 598.177 85.7093 598.433 86.008C598.731 86.264 598.881 86.6053 598.881 87.032V97.72H606.817C607.243 97.72 607.585 97.8693 607.841 98.168C608.139 98.424 608.289 98.7653 608.289 99.192V101.368C608.289 101.795 608.139 102.157 607.841 102.456C607.585 102.712 607.243 102.84 606.817 102.84H598.881V119.288C598.881 121.293 599.222 122.872 599.905 124.024C600.587 125.176 601.803 125.752 603.553 125.752H607.457C607.883 125.752 608.225 125.901 608.481 126.2C608.779 126.456 608.929 126.797 608.929 127.224V129.528C608.929 129.955 608.779 130.317 608.481 130.616C608.225 130.872 607.883 131 607.457 131H603.041ZM616.585 143.16C616.158 143.16 615.795 143.011 615.497 142.712C615.241 142.456 615.113 142.115 615.113 141.688V99.192C615.113 98.7653 615.241 98.424 615.497 98.168C615.795 97.8693 616.158 97.72 616.585 97.72H619.529C619.955 97.72 620.297 97.8693 620.553 98.168C620.851 98.424 621.001 98.7653 621.001 99.192V102.008C622.025 100.6 623.39 99.4267 625.097 98.488C626.803 97.5493 628.937 97.08 631.497 97.08C633.886 97.08 635.913 97.4853 637.577 98.296C639.283 99.1067 640.67 100.216 641.737 101.624C642.846 103.032 643.678 104.632 644.233 106.424C644.787 108.216 645.086 110.136 645.129 112.184C645.171 112.867 645.193 113.592 645.193 114.36C645.193 115.128 645.171 115.853 645.129 116.536C645.086 118.541 644.787 120.461 644.233 122.296C643.678 124.088 642.846 125.688 641.737 127.096C640.67 128.461 639.283 129.571 637.577 130.424C635.913 131.235 633.886 131.64 631.497 131.64C629.022 131.64 626.931 131.192 625.225 130.296C623.561 129.357 622.195 128.205 621.129 126.84V141.688C621.129 142.115 621.001 142.456 620.745 142.712C620.489 143.011 620.126 143.16 619.657 143.16H616.585ZM630.153 126.456C632.371 126.456 634.099 125.987 635.337 125.048C636.617 124.067 637.534 122.808 638.089 121.272C638.643 119.693 638.963 118.008 639.049 116.216C639.091 114.979 639.091 113.741 639.049 112.504C638.963 110.712 638.643 109.048 638.089 107.512C637.534 105.933 636.617 104.675 635.337 103.736C634.099 102.755 632.371 102.264 630.153 102.264C628.062 102.264 626.355 102.755 625.033 103.736C623.753 104.717 622.793 105.976 622.153 107.512C621.555 109.005 621.214 110.541 621.129 112.12C621.086 112.803 621.065 113.613 621.065 114.552C621.065 115.491 621.086 116.323 621.129 117.048C621.171 118.541 621.513 120.013 622.153 121.464C622.835 122.915 623.838 124.109 625.161 125.048C626.483 125.987 628.147 126.456 630.153 126.456ZM662.454 131.64C660.32 131.64 658.379 131.213 656.63 130.36C654.88 129.507 653.472 128.355 652.406 126.904C651.339 125.453 650.806 123.811 650.806 121.976C650.806 119.032 652 116.685 654.39 114.936C656.779 113.187 659.894 112.035 663.734 111.48L673.27 110.136V108.28C673.27 106.232 672.672 104.632 671.478 103.48C670.326 102.328 668.427 101.752 665.782 101.752C663.862 101.752 662.304 102.136 661.11 102.904C659.958 103.672 659.147 104.653 658.678 105.848C658.422 106.488 657.974 106.808 657.334 106.808H654.454C653.984 106.808 653.622 106.68 653.366 106.424C653.152 106.125 653.046 105.784 653.046 105.4C653.046 104.76 653.28 103.971 653.75 103.032C654.262 102.093 655.03 101.176 656.054 100.28C657.078 99.384 658.379 98.6373 659.958 98.04C661.579 97.4 663.542 97.08 665.846 97.08C668.406 97.08 670.56 97.4213 672.31 98.104C674.059 98.744 675.424 99.6187 676.406 100.728C677.43 101.837 678.155 103.096 678.582 104.504C679.051 105.912 679.286 107.341 679.286 108.792V129.528C679.286 129.955 679.136 130.317 678.838 130.616C678.582 130.872 678.24 131 677.814 131H674.87C674.4 131 674.038 130.872 673.782 130.616C673.526 130.317 673.398 129.955 673.398 129.528V126.776C672.843 127.544 672.096 128.312 671.158 129.08C670.219 129.805 669.046 130.424 667.638 130.936C666.23 131.405 664.502 131.64 662.454 131.64ZM663.798 126.84C665.547 126.84 667.147 126.477 668.598 125.752C670.048 124.984 671.179 123.811 671.99 122.232C672.843 120.653 673.27 118.669 673.27 116.28V114.488L665.846 115.576C662.816 116.003 660.534 116.728 658.998 117.752C657.462 118.733 656.694 119.992 656.694 121.528C656.694 122.723 657.035 123.725 657.718 124.536C658.443 125.304 659.339 125.88 660.406 126.264C661.515 126.648 662.646 126.84 663.798 126.84ZM701.926 131.64C698.897 131.64 696.273 131.064 694.054 129.912C691.878 128.717 690.193 127.032 688.998 124.856C687.803 122.637 687.163 119.992 687.078 116.92C687.035 116.28 687.014 115.427 687.014 114.36C687.014 113.293 687.035 112.44 687.078 111.8C687.163 108.728 687.803 106.104 688.998 103.928C690.193 101.709 691.878 100.024 694.054 98.872C696.273 97.6773 698.897 97.08 701.926 97.08C704.401 97.08 706.513 97.4213 708.262 98.104C710.054 98.7867 711.526 99.6613 712.678 100.728C713.83 101.795 714.683 102.947 715.238 104.184C715.835 105.421 716.155 106.595 716.198 107.704C716.241 108.131 716.113 108.472 715.814 108.728C715.515 108.984 715.153 109.112 714.726 109.112H711.654C711.227 109.112 710.907 109.027 710.694 108.856C710.481 108.643 710.267 108.301 710.054 107.832C709.286 105.741 708.241 104.269 706.918 103.416C705.595 102.563 703.953 102.136 701.99 102.136C699.43 102.136 697.339 102.925 695.718 104.504C694.139 106.083 693.286 108.621 693.158 112.12C693.115 113.656 693.115 115.149 693.158 116.6C693.286 120.141 694.139 122.701 695.718 124.28C697.339 125.816 699.43 126.584 701.99 126.584C703.953 126.584 705.595 126.157 706.918 125.304C708.241 124.451 709.286 122.979 710.054 120.888C710.267 120.419 710.481 120.099 710.694 119.928C710.907 119.715 711.227 119.608 711.654 119.608H714.726C715.153 119.608 715.515 119.736 715.814 119.992C716.113 120.248 716.241 120.589 716.198 121.016C716.155 121.912 715.963 122.829 715.622 123.768C715.281 124.707 714.726 125.667 713.958 126.648C713.233 127.587 712.315 128.44 711.206 129.208C710.097 129.933 708.753 130.531 707.174 131C705.638 131.427 703.889 131.64 701.926 131.64ZM725.335 131C724.908 131 724.545 130.872 724.247 130.616C723.991 130.317 723.863 129.955 723.863 129.528V87.032C723.863 86.6053 723.991 86.264 724.247 86.008C724.545 85.7093 724.908 85.56 725.335 85.56H728.343C728.769 85.56 729.111 85.7093 729.367 86.008C729.665 86.264 729.815 86.6053 729.815 87.032V109.304L742.423 98.808C742.935 98.3813 743.319 98.104 743.575 97.976C743.873 97.8053 744.343 97.72 744.983 97.72H748.375C748.759 97.72 749.079 97.848 749.335 98.104C749.591 98.36 749.719 98.68 749.719 99.064C749.719 99.2347 749.655 99.4267 749.527 99.64C749.441 99.8533 749.249 100.067 748.951 100.28L734.167 112.568L750.551 128.504C751.063 128.931 751.319 129.315 751.319 129.656C751.319 130.04 751.191 130.36 750.935 130.616C750.679 130.872 750.359 131 749.975 131H746.647C746.007 131 745.537 130.936 745.239 130.808C744.94 130.637 744.556 130.339 744.087 129.912L729.815 116.28V129.528C729.815 129.955 729.665 130.317 729.367 130.616C729.111 130.872 728.769 131 728.343 131H725.335Z" fill="#E10098"/>
<circle cx="120" cy="110" r="60" fill="#E10098"/>
<g clip-path="url(#clip1_2_2)">
<path fill-rule="evenodd" clip-rule="evenodd" d="M119.767 81.5942L144.164 95.6803V123.853L119.767 137.939L95.3686 123.853V95.6803L119.767 81.5942ZM98.1061 97.2608V117.954L116.027 86.9142L98.1061 97.2608ZM119.767 85.9122L99.1081 121.694H140.425L119.767 85.9122ZM137.687 124.431H101.846L119.767 134.778L137.687 124.431ZM141.427 117.954L123.506 86.9142L141.427 97.2608V117.954Z" fill="white"/>
<path d="M119.767 88.9403C122.951 88.9403 125.532 86.359 125.532 83.1747C125.532 79.9905 122.951 77.4091 119.767 77.4091C116.582 77.4091 114.001 79.9905 114.001 83.1747C114.001 86.359 116.582 88.9403 119.767 88.9403Z" fill="white"/>
<path d="M142.796 102.236C145.98 102.236 148.561 99.6549 148.561 96.4706C148.561 93.2864 145.98 90.705 142.796 90.705C139.611 90.705 137.03 93.2864 137.03 96.4706C137.03 99.6549 139.611 102.236 142.796 102.236Z" fill="white"/>
<path d="M142.796 128.828C145.98 128.828 148.561 126.247 148.561 123.062C148.561 119.878 145.98 117.297 142.796 117.297C139.611 117.297 137.03 119.878 137.03 123.062C137.03 126.247 139.611 128.828 142.796 128.828Z" fill="white"/>
<path d="M119.767 142.124C122.951 142.124 125.532 139.543 125.532 136.358C125.532 133.174 122.951 130.593 119.767 130.593C116.582 130.593 114.001 133.174 114.001 136.358C114.001 139.543 116.582 142.124 119.767 142.124Z" fill="white"/>
<path d="M96.7341 128.828C99.9184 128.828 102.5 126.247 102.5 123.062C102.5 119.878 99.9184 117.297 96.7341 117.297C93.5499 117.297 90.9685 119.878 90.9685 123.062C90.9685 126.247 93.5499 128.828 96.7341 128.828Z" fill="white"/>
<path d="M96.7341 102.236C99.9184 102.236 102.5 99.6549 102.5 96.4706C102.5 93.2864 99.9184 90.705 96.7341 90.705C93.5499 90.705 90.9685 93.2864 90.9685 96.4706C90.9685 99.6549 93.5499 102.236 96.7341 102.236Z" fill="white"/>
</g>
</g>
<defs>
<clipPath id="clip0_2_2">
<rect width="830" height="220" fill="white"/>
</clipPath>
<clipPath id="clip1_2_2">
<rect width="65.3697" height="65.3697" fill="white" transform="translate(87.0817 77.0817)"/>
</clipPath>
</defs>
</svg>
