<svg width="830" height="160" viewBox="0 0 830 160" fill="none" xmlns="http://www.w3.org/2000/svg">
<g clip-path="url(#clip0_2_2)">
<path d="M291.821 94.48C289.005 94.48 286.605 93.952 284.621 92.896C282.669 91.84 281.165 90.352 280.109 88.432C279.085 86.512 278.509 84.256 278.381 81.664C278.349 80.256 278.333 78.768 278.333 77.2C278.333 75.6 278.349 74.08 278.381 72.64C278.509 70.048 279.085 67.808 280.109 65.92C281.165 64.032 282.685 62.56 284.669 61.504C286.653 60.448 289.037 59.92 291.821 59.92C294.093 59.92 296.061 60.24 297.725 60.88C299.389 61.52 300.749 62.336 301.805 63.328C302.893 64.288 303.693 65.296 304.205 66.352C304.749 67.408 305.037 68.336 305.069 69.136C305.101 69.424 305.021 69.664 304.829 69.856C304.637 70.016 304.381 70.096 304.061 70.096H301.229C300.909 70.096 300.669 70.032 300.509 69.904C300.381 69.776 300.253 69.552 300.125 69.232C299.837 68.4 299.357 67.584 298.685 66.784C298.045 65.984 297.165 65.328 296.045 64.816C294.957 64.272 293.549 64 291.821 64C289.293 64 287.245 64.688 285.677 66.064C284.141 67.44 283.309 69.712 283.181 72.88C283.085 75.728 283.085 78.576 283.181 81.424C283.309 84.624 284.157 86.928 285.725 88.336C287.293 89.712 289.341 90.4 291.869 90.4C293.565 90.4 295.069 90.096 296.381 89.488C297.725 88.848 298.781 87.872 299.549 86.56C300.317 85.248 300.701 83.584 300.701 81.568V79.552H293.501C293.181 79.552 292.909 79.456 292.685 79.264C292.493 79.04 292.397 78.752 292.397 78.4V76.864C292.397 76.512 292.493 76.24 292.685 76.048C292.909 75.824 293.181 75.712 293.501 75.712H304.349C304.701 75.712 304.973 75.824 305.165 76.048C305.357 76.24 305.453 76.512 305.453 76.864V81.472C305.453 84.096 304.909 86.384 303.821 88.336C302.765 90.288 301.213 91.808 299.165 92.896C297.117 93.952 294.669 94.48 291.821 94.48ZM312.781 94C312.461 94 312.189 93.904 311.965 93.712C311.773 93.488 311.677 93.216 311.677 92.896V70.192C311.677 69.872 311.773 69.6 311.965 69.376C312.189 69.152 312.461 69.04 312.781 69.04H314.989C315.309 69.04 315.581 69.152 315.805 69.376C316.029 69.6 316.141 69.872 316.141 70.192V72.304C316.781 71.216 317.661 70.4 318.781 69.856C319.901 69.312 321.245 69.04 322.813 69.04H324.733C325.053 69.04 325.309 69.152 325.501 69.376C325.693 69.568 325.789 69.824 325.789 70.144V72.112C325.789 72.432 325.693 72.688 325.501 72.88C325.309 73.072 325.053 73.168 324.733 73.168H321.853C320.125 73.168 318.765 73.68 317.773 74.704C316.781 75.696 316.285 77.056 316.285 78.784V92.896C316.285 93.216 316.173 93.488 315.949 93.712C315.725 93.904 315.453 94 315.133 94H312.781ZM336.496 94.48C334.896 94.48 333.44 94.16 332.128 93.52C330.816 92.88 329.76 92.016 328.96 90.928C328.16 89.84 327.76 88.608 327.76 87.232C327.76 85.024 328.656 83.264 330.448 81.952C332.24 80.64 334.576 79.776 337.456 79.36L344.608 78.352V76.96C344.608 75.424 344.16 74.224 343.264 73.36C342.4 72.496 340.976 72.064 338.992 72.064C337.552 72.064 336.384 72.352 335.488 72.928C334.624 73.504 334.016 74.24 333.664 75.136C333.472 75.616 333.136 75.856 332.656 75.856H330.496C330.144 75.856 329.872 75.76 329.68 75.568C329.52 75.344 329.44 75.088 329.44 74.8C329.44 74.32 329.616 73.728 329.968 73.024C330.352 72.32 330.928 71.632 331.696 70.96C332.464 70.288 333.44 69.728 334.624 69.28C335.84 68.8 337.312 68.56 339.04 68.56C340.96 68.56 342.576 68.816 343.888 69.328C345.2 69.808 346.224 70.464 346.96 71.296C347.728 72.128 348.272 73.072 348.592 74.128C348.944 75.184 349.12 76.256 349.12 77.344V92.896C349.12 93.216 349.008 93.488 348.784 93.712C348.592 93.904 348.336 94 348.016 94H345.808C345.456 94 345.184 93.904 344.992 93.712C344.8 93.488 344.704 93.216 344.704 92.896V90.832C344.288 91.408 343.728 91.984 343.024 92.56C342.32 93.104 341.44 93.568 340.384 93.952C339.328 94.304 338.032 94.48 336.496 94.48ZM337.504 90.88C338.816 90.88 340.016 90.608 341.104 90.064C342.192 89.488 343.04 88.608 343.648 87.424C344.288 86.24 344.608 84.752 344.608 82.96V81.616L339.04 82.432C336.768 82.752 335.056 83.296 333.904 84.064C332.752 84.8 332.176 85.744 332.176 86.896C332.176 87.792 332.432 88.544 332.944 89.152C333.488 89.728 334.16 90.16 334.96 90.448C335.792 90.736 336.64 90.88 337.504 90.88ZM357.173 103.12C356.853 103.12 356.581 103.008 356.357 102.784C356.165 102.592 356.069 102.336 356.069 102.016V70.144C356.069 69.824 356.165 69.568 356.357 69.376C356.581 69.152 356.853 69.04 357.173 69.04H359.381C359.701 69.04 359.957 69.152 360.149 69.376C360.373 69.568 360.485 69.824 360.485 70.144V72.256C361.253 71.2 362.277 70.32 363.557 69.616C364.837 68.912 366.437 68.56 368.357 68.56C370.149 68.56 371.669 68.864 372.917 69.472C374.197 70.08 375.237 70.912 376.037 71.968C376.869 73.024 377.493 74.224 377.909 75.568C378.325 76.912 378.549 78.352 378.581 79.888C378.613 80.4 378.629 80.944 378.629 81.52C378.629 82.096 378.613 82.64 378.581 83.152C378.549 84.656 378.325 86.096 377.909 87.472C377.493 88.816 376.869 90.016 376.037 91.072C375.237 92.096 374.197 92.928 372.917 93.568C371.669 94.176 370.149 94.48 368.357 94.48C366.501 94.48 364.933 94.144 363.653 93.472C362.405 92.768 361.381 91.904 360.581 90.88V102.016C360.581 102.336 360.485 102.592 360.293 102.784C360.101 103.008 359.829 103.12 359.477 103.12H357.173ZM367.349 90.592C369.013 90.592 370.309 90.24 371.237 89.536C372.197 88.8 372.885 87.856 373.301 86.704C373.717 85.52 373.957 84.256 374.021 82.912C374.053 81.984 374.053 81.056 374.021 80.128C373.957 78.784 373.717 77.536 373.301 76.384C372.885 75.2 372.197 74.256 371.237 73.552C370.309 72.816 369.013 72.448 367.349 72.448C365.781 72.448 364.501 72.816 363.509 73.552C362.549 74.288 361.829 75.232 361.349 76.384C360.901 77.504 360.645 78.656 360.581 79.84C360.549 80.352 360.533 80.96 360.533 81.664C360.533 82.368 360.549 82.992 360.581 83.536C360.613 84.656 360.869 85.76 361.349 86.848C361.861 87.936 362.613 88.832 363.605 89.536C364.597 90.24 365.845 90.592 367.349 90.592ZM385.767 94C385.447 94 385.175 93.904 384.951 93.712C384.759 93.488 384.663 93.216 384.663 92.896V61.024C384.663 60.704 384.759 60.448 384.951 60.256C385.175 60.032 385.447 59.92 385.767 59.92H388.167C388.519 59.92 388.791 60.032 388.983 60.256C389.175 60.448 389.271 60.704 389.271 61.024V72.208C390.135 71.12 391.191 70.24 392.439 69.568C393.687 68.896 395.271 68.56 397.191 68.56C399.271 68.56 401.031 69.024 402.471 69.952C403.943 70.848 405.047 72.112 405.783 73.744C406.551 75.344 406.935 77.216 406.935 79.36V92.896C406.935 93.216 406.839 93.488 406.647 93.712C406.455 93.904 406.183 94 405.831 94H403.431C403.111 94 402.839 93.904 402.615 93.712C402.423 93.488 402.327 93.216 402.327 92.896V79.6C402.327 77.36 401.783 75.616 400.695 74.368C399.607 73.088 398.007 72.448 395.895 72.448C393.911 72.448 392.311 73.088 391.095 74.368C389.879 75.616 389.271 77.36 389.271 79.6V92.896C389.271 93.216 389.175 93.488 388.983 93.712C388.791 93.904 388.519 94 388.167 94H385.767ZM436.137 97.12C435.721 97.12 435.385 96.976 435.129 96.688C434.873 96.432 434.665 96.208 434.505 96.016L432.537 93.328C430.809 94.096 428.809 94.48 426.537 94.48C423.785 94.48 421.433 94.016 419.481 93.088C417.561 92.128 416.057 90.672 414.969 88.72C413.913 86.736 413.337 84.256 413.241 81.28C413.209 79.872 413.193 78.528 413.193 77.248C413.193 75.936 413.209 74.576 413.241 73.168C413.337 70.224 413.945 67.776 415.065 65.824C416.185 63.84 417.721 62.368 419.673 61.408C421.657 60.416 423.945 59.92 426.537 59.92C429.161 59.92 431.449 60.416 433.401 61.408C435.385 62.368 436.937 63.84 438.057 65.824C439.177 67.776 439.769 70.224 439.833 73.168C439.897 74.576 439.929 75.936 439.929 77.248C439.929 78.528 439.897 79.872 439.833 81.28C439.673 85.696 438.521 88.976 436.377 91.12L439.545 95.632C439.577 95.664 439.609 95.712 439.641 95.776C439.673 95.872 439.689 96 439.689 96.16C439.721 96.416 439.641 96.64 439.449 96.832C439.257 97.024 439.017 97.12 438.729 97.12H436.137ZM426.537 90.4C428.969 90.4 430.969 89.664 432.537 88.192C434.105 86.72 434.953 84.336 435.081 81.04C435.145 79.6 435.177 78.32 435.177 77.2C435.177 76.048 435.145 74.768 435.081 73.36C435.017 71.152 434.601 69.36 433.833 67.984C433.097 66.608 432.105 65.6 430.857 64.96C429.609 64.32 428.169 64 426.537 64C424.969 64 423.545 64.32 422.265 64.96C421.017 65.6 420.025 66.608 419.289 67.984C418.553 69.36 418.137 71.152 418.041 73.36C418.009 74.768 417.993 76.048 417.993 77.2C417.993 78.32 418.009 79.6 418.041 81.04C418.169 84.336 419.017 86.72 420.585 88.192C422.153 89.664 424.137 90.4 426.537 90.4ZM448.077 94C447.725 94 447.453 93.904 447.261 93.712C447.069 93.488 446.973 93.216 446.973 92.896V61.504C446.973 61.184 447.069 60.928 447.261 60.736C447.453 60.512 447.725 60.4 448.077 60.4H450.621C450.941 60.4 451.197 60.512 451.389 60.736C451.581 60.928 451.677 61.184 451.677 61.504V89.824H467.661C468.013 89.824 468.285 89.936 468.477 90.16C468.669 90.352 468.765 90.624 468.765 90.976V92.896C468.765 93.216 468.669 93.488 468.477 93.712C468.285 93.904 468.013 94 467.661 94H448.077ZM494.504 94.48C492.872 94.48 491.32 94.288 489.848 93.904C488.408 93.488 487.112 92.864 485.96 92.032C484.84 91.168 483.944 90.096 483.272 88.816C482.6 87.536 482.232 86.032 482.168 84.304C482.168 84.016 482.264 83.776 482.456 83.584C482.648 83.36 482.904 83.248 483.224 83.248H485.816C486.168 83.248 486.44 83.36 486.632 83.584C486.856 83.776 487 84.032 487.064 84.352C487.192 85.792 487.608 86.96 488.312 87.856C489.016 88.72 489.912 89.36 491 89.776C492.088 90.192 493.288 90.4 494.6 90.4C497.032 90.4 498.888 89.6 500.168 88C501.448 86.4 502.088 84.272 502.088 81.616V64.576H485.048C484.728 64.576 484.456 64.48 484.232 64.288C484.04 64.064 483.944 63.792 483.944 63.472V61.504C483.944 61.184 484.04 60.928 484.232 60.736C484.456 60.512 484.728 60.4 485.048 60.4H505.736C506.088 60.4 506.36 60.512 506.552 60.736C506.776 60.928 506.888 61.2 506.888 61.552V81.712C506.888 84.304 506.392 86.56 505.4 88.48C504.408 90.4 503 91.888 501.176 92.944C499.352 93.968 497.128 94.48 494.504 94.48ZM524.254 94.48C520.958 94.48 518.334 93.472 516.382 91.456C514.43 89.408 513.358 86.624 513.166 83.104C513.134 82.688 513.118 82.16 513.118 81.52C513.118 80.848 513.134 80.304 513.166 79.888C513.294 77.616 513.822 75.632 514.75 73.936C515.678 72.208 516.942 70.88 518.542 69.952C520.174 69.024 522.078 68.56 524.254 68.56C526.686 68.56 528.718 69.072 530.35 70.096C532.014 71.12 533.278 72.576 534.142 74.464C535.006 76.352 535.438 78.56 535.438 81.088V81.904C535.438 82.256 535.326 82.528 535.102 82.72C534.91 82.912 534.654 83.008 534.334 83.008H517.726C517.726 83.04 517.726 83.104 517.726 83.2C517.726 83.296 517.726 83.376 517.726 83.44C517.79 84.752 518.078 85.984 518.59 87.136C519.102 88.256 519.838 89.168 520.798 89.872C521.758 90.576 522.91 90.928 524.254 90.928C525.406 90.928 526.366 90.752 527.134 90.4C527.902 90.048 528.526 89.664 529.006 89.248C529.486 88.8 529.806 88.464 529.966 88.24C530.254 87.824 530.478 87.584 530.638 87.52C530.798 87.424 531.054 87.376 531.406 87.376H533.71C534.03 87.376 534.286 87.472 534.478 87.664C534.702 87.824 534.798 88.064 534.766 88.384C534.734 88.864 534.478 89.456 533.998 90.16C533.518 90.832 532.83 91.504 531.934 92.176C531.038 92.848 529.95 93.408 528.67 93.856C527.39 94.272 525.918 94.48 524.254 94.48ZM517.726 79.696H530.878V79.552C530.878 78.112 530.606 76.832 530.062 75.712C529.55 74.592 528.798 73.712 527.806 73.072C526.814 72.4 525.63 72.064 524.254 72.064C522.878 72.064 521.694 72.4 520.702 73.072C519.742 73.712 519.006 74.592 518.494 75.712C517.982 76.832 517.726 78.112 517.726 79.552V79.696ZM550.78 94C548.988 94 547.532 93.664 546.412 92.992C545.292 92.288 544.476 91.312 543.964 90.064C543.452 88.784 543.196 87.28 543.196 85.552V72.88H539.452C539.132 72.88 538.86 72.784 538.636 72.592C538.444 72.368 538.348 72.096 538.348 71.776V70.144C538.348 69.824 538.444 69.568 538.636 69.376C538.86 69.152 539.132 69.04 539.452 69.04H543.196V61.024C543.196 60.704 543.292 60.448 543.484 60.256C543.708 60.032 543.98 59.92 544.3 59.92H546.556C546.876 59.92 547.132 60.032 547.324 60.256C547.548 60.448 547.66 60.704 547.66 61.024V69.04H553.612C553.932 69.04 554.188 69.152 554.38 69.376C554.604 69.568 554.716 69.824 554.716 70.144V71.776C554.716 72.096 554.604 72.368 554.38 72.592C554.188 72.784 553.932 72.88 553.612 72.88H547.66V85.216C547.66 86.72 547.916 87.904 548.428 88.768C548.94 89.632 549.852 90.064 551.164 90.064H554.092C554.412 90.064 554.668 90.176 554.86 90.4C555.084 90.592 555.196 90.848 555.196 91.168V92.896C555.196 93.216 555.084 93.488 554.86 93.712C554.668 93.904 554.412 94 554.092 94H550.78ZM560.938 103.12C560.618 103.12 560.346 103.008 560.122 102.784C559.93 102.592 559.834 102.336 559.834 102.016V70.144C559.834 69.824 559.93 69.568 560.122 69.376C560.346 69.152 560.618 69.04 560.938 69.04H563.146C563.466 69.04 563.722 69.152 563.914 69.376C564.138 69.568 564.25 69.824 564.25 70.144V72.256C565.018 71.2 566.042 70.32 567.322 69.616C568.602 68.912 570.202 68.56 572.122 68.56C573.914 68.56 575.434 68.864 576.682 69.472C577.962 70.08 579.002 70.912 579.802 71.968C580.634 73.024 581.258 74.224 581.674 75.568C582.09 76.912 582.314 78.352 582.346 79.888C582.378 80.4 582.394 80.944 582.394 81.52C582.394 82.096 582.378 82.64 582.346 83.152C582.314 84.656 582.09 86.096 581.674 87.472C581.258 88.816 580.634 90.016 579.802 91.072C579.002 92.096 577.962 92.928 576.682 93.568C575.434 94.176 573.914 94.48 572.122 94.48C570.266 94.48 568.698 94.144 567.418 93.472C566.17 92.768 565.146 91.904 564.346 90.88V102.016C564.346 102.336 564.25 102.592 564.058 102.784C563.866 103.008 563.594 103.12 563.242 103.12H560.938ZM571.114 90.592C572.778 90.592 574.074 90.24 575.002 89.536C575.962 88.8 576.65 87.856 577.066 86.704C577.482 85.52 577.722 84.256 577.786 82.912C577.818 81.984 577.818 81.056 577.786 80.128C577.722 78.784 577.482 77.536 577.066 76.384C576.65 75.2 575.962 74.256 575.002 73.552C574.074 72.816 572.778 72.448 571.114 72.448C569.546 72.448 568.266 72.816 567.274 73.552C566.314 74.288 565.594 75.232 565.114 76.384C564.666 77.504 564.41 78.656 564.346 79.84C564.314 80.352 564.298 80.96 564.298 81.664C564.298 82.368 564.314 82.992 564.346 83.536C564.378 84.656 564.634 85.76 565.114 86.848C565.626 87.936 566.378 88.832 567.37 89.536C568.362 90.24 569.61 90.592 571.114 90.592ZM595.34 94.48C593.74 94.48 592.284 94.16 590.972 93.52C589.66 92.88 588.604 92.016 587.804 90.928C587.004 89.84 586.604 88.608 586.604 87.232C586.604 85.024 587.5 83.264 589.292 81.952C591.084 80.64 593.42 79.776 596.3 79.36L603.452 78.352V76.96C603.452 75.424 603.004 74.224 602.108 73.36C601.244 72.496 599.82 72.064 597.836 72.064C596.396 72.064 595.228 72.352 594.332 72.928C593.468 73.504 592.86 74.24 592.508 75.136C592.316 75.616 591.98 75.856 591.5 75.856H589.34C588.988 75.856 588.716 75.76 588.524 75.568C588.364 75.344 588.284 75.088 588.284 74.8C588.284 74.32 588.46 73.728 588.812 73.024C589.196 72.32 589.772 71.632 590.54 70.96C591.308 70.288 592.284 69.728 593.468 69.28C594.684 68.8 596.156 68.56 597.884 68.56C599.804 68.56 601.42 68.816 602.732 69.328C604.044 69.808 605.068 70.464 605.804 71.296C606.572 72.128 607.116 73.072 607.436 74.128C607.788 75.184 607.964 76.256 607.964 77.344V92.896C607.964 93.216 607.852 93.488 607.628 93.712C607.436 93.904 607.18 94 606.86 94H604.652C604.3 94 604.028 93.904 603.836 93.712C603.644 93.488 603.548 93.216 603.548 92.896V90.832C603.132 91.408 602.572 91.984 601.868 92.56C601.164 93.104 600.284 93.568 599.228 93.952C598.172 94.304 596.876 94.48 595.34 94.48ZM596.348 90.88C597.66 90.88 598.86 90.608 599.948 90.064C601.036 89.488 601.884 88.608 602.492 87.424C603.132 86.24 603.452 84.752 603.452 82.96V81.616L597.884 82.432C595.612 82.752 593.9 83.296 592.748 84.064C591.596 84.8 591.02 85.744 591.02 86.896C591.02 87.792 591.276 88.544 591.788 89.152C592.332 89.728 593.004 90.16 593.804 90.448C594.636 90.736 595.484 90.88 596.348 90.88ZM624.945 94.48C622.673 94.48 620.705 94.048 619.041 93.184C617.409 92.288 616.145 91.024 615.249 89.392C614.353 87.728 613.873 85.744 613.809 83.44C613.777 82.96 613.761 82.32 613.761 81.52C613.761 80.72 613.777 80.08 613.809 79.6C613.873 77.296 614.353 75.328 615.249 73.696C616.145 72.032 617.409 70.768 619.041 69.904C620.705 69.008 622.673 68.56 624.945 68.56C626.801 68.56 628.385 68.816 629.697 69.328C631.041 69.84 632.145 70.496 633.009 71.296C633.873 72.096 634.513 72.96 634.929 73.888C635.377 74.816 635.617 75.696 635.649 76.528C635.681 76.848 635.585 77.104 635.361 77.296C635.137 77.488 634.865 77.584 634.545 77.584H632.241C631.921 77.584 631.681 77.52 631.521 77.392C631.361 77.232 631.201 76.976 631.041 76.624C630.465 75.056 629.681 73.952 628.689 73.312C627.697 72.672 626.465 72.352 624.993 72.352C623.073 72.352 621.505 72.944 620.289 74.128C619.105 75.312 618.465 77.216 618.368 79.84C618.337 80.992 618.337 82.112 618.368 83.2C618.465 85.856 619.105 87.776 620.289 88.96C621.505 90.112 623.073 90.688 624.993 90.688C626.465 90.688 627.697 90.368 628.689 89.728C629.681 89.088 630.465 87.984 631.041 86.416C631.201 86.064 631.361 85.824 631.521 85.696C631.681 85.536 631.921 85.456 632.241 85.456H634.545C634.865 85.456 635.137 85.552 635.361 85.744C635.585 85.936 635.681 86.192 635.649 86.512C635.617 87.184 635.473 87.872 635.217 88.576C634.961 89.28 634.545 90 633.969 90.736C633.425 91.44 632.737 92.08 631.905 92.656C631.073 93.2 630.065 93.648 628.881 94C627.729 94.32 626.417 94.48 624.945 94.48ZM642.501 94C642.181 94 641.909 93.904 641.685 93.712C641.493 93.488 641.397 93.216 641.397 92.896V61.024C641.397 60.704 641.493 60.448 641.685 60.256C641.909 60.032 642.181 59.92 642.501 59.92H644.757C645.077 59.92 645.333 60.032 645.525 60.256C645.749 60.448 645.861 60.704 645.861 61.024V77.728L655.317 69.856C655.701 69.536 655.989 69.328 656.181 69.232C656.405 69.104 656.757 69.04 657.237 69.04H659.781C660.069 69.04 660.309 69.136 660.501 69.328C660.693 69.52 660.789 69.76 660.789 70.048C660.789 70.176 660.741 70.32 660.645 70.48C660.581 70.64 660.437 70.8 660.213 70.96L649.125 80.176L661.413 92.128C661.797 92.448 661.989 92.736 661.989 92.992C661.989 93.28 661.893 93.52 661.701 93.712C661.509 93.904 661.269 94 660.981 94H658.485C658.005 94 657.653 93.952 657.429 93.856C657.205 93.728 656.917 93.504 656.565 93.184L645.861 82.96V92.896C645.861 93.216 645.749 93.488 645.525 93.712C645.333 93.904 645.077 94 644.757 94H642.501Z" fill="#E10098"/>
<circle cx="190" cy="80" r="45" fill="#E10098"/>
<g clip-path="url(#clip1_2_2)">
<path fill-rule="evenodd" clip-rule="evenodd" d="M189.825 58.6956L208.123 69.2602V90.3895L189.825 100.954L171.526 90.3895V69.2602L189.825 58.6956ZM173.58 70.4456V85.9656L187.02 62.6856L173.58 70.4456ZM189.825 61.9342L174.331 88.7702H205.319L189.825 61.9342ZM203.266 90.8234H176.384L189.825 98.5833L203.266 90.8234ZM206.07 85.9656L192.629 62.6856L206.07 70.4456V85.9656Z" fill="white"/>
<path d="M189.825 64.2052C192.213 64.2052 194.149 62.2692 194.149 59.881C194.149 57.4928 192.213 55.5568 189.825 55.5568C187.437 55.5568 185.501 57.4928 185.501 59.881C185.501 62.2692 187.437 64.2052 189.825 64.2052Z" fill="white"/>
<path d="M207.097 74.1772C209.485 74.1772 211.421 72.2412 211.421 69.853C211.421 67.4648 209.485 65.5288 207.097 65.5288C204.709 65.5288 202.773 67.4648 202.773 69.853C202.773 72.2412 204.709 74.1772 207.097 74.1772Z" fill="white"/>
<path d="M207.097 94.121C209.485 94.121 211.421 92.185 211.421 89.7968C211.421 87.4086 209.485 85.4726 207.097 85.4726C204.709 85.4726 202.773 87.4086 202.773 89.7968C202.773 92.185 204.709 94.121 207.097 94.121Z" fill="white"/>
<path d="M189.825 104.093C192.213 104.093 194.149 102.157 194.149 99.7687C194.149 97.3805 192.213 95.4445 189.825 95.4445C187.437 95.4445 185.501 97.3805 185.501 99.7687C185.501 102.157 187.437 104.093 189.825 104.093Z" fill="white"/>
<path d="M172.551 94.121C174.939 94.121 176.875 92.185 176.875 89.7968C176.875 87.4086 174.939 85.4726 172.551 85.4726C170.162 85.4726 168.226 87.4086 168.226 89.7968C168.226 92.185 170.162 94.121 172.551 94.121Z" fill="white"/>
<path d="M172.551 74.1772C174.939 74.1772 176.875 72.2412 176.875 69.853C176.875 67.4648 174.939 65.5288 172.551 65.5288C170.162 65.5288 168.226 67.4648 168.226 69.853C168.226 72.2412 170.162 74.1772 172.551 74.1772Z" fill="white"/>
</g>
</g>
<defs>
<clipPath id="clip0_2_2">
<rect width="830" height="160" fill="white"/>
</clipPath>
<clipPath id="clip1_2_2">
<rect width="49.0272" height="49.0272" fill="white" transform="translate(165.311 55.3112)"/>
</clipPath>
</defs>
</svg>
