<svg width="830" height="180" viewBox="0 0 830 180" fill="none" xmlns="http://www.w3.org/2000/svg">
<g clip-path="url(#clip0_2_2)">
<path d="M257.762 111.64C254.007 111.64 250.807 110.936 248.162 109.528C245.559 108.12 243.554 106.136 242.146 103.576C240.78 101.016 240.012 98.008 239.842 94.552C239.799 92.6747 239.778 90.6907 239.778 88.6C239.778 86.4667 239.799 84.44 239.842 82.52C240.012 79.064 240.78 76.0773 242.146 73.56C243.554 71.0427 245.58 69.08 248.226 67.672C250.871 66.264 254.05 65.56 257.762 65.56C260.791 65.56 263.415 65.9867 265.634 66.84C267.852 67.6933 269.666 68.7813 271.074 70.104C272.524 71.384 273.591 72.728 274.274 74.136C274.999 75.544 275.383 76.7813 275.426 77.848C275.468 78.232 275.362 78.552 275.106 78.808C274.85 79.0213 274.508 79.128 274.082 79.128H270.306C269.879 79.128 269.559 79.0427 269.346 78.872C269.175 78.7013 269.004 78.4027 268.833 77.976C268.449 76.8667 267.81 75.7787 266.914 74.712C266.06 73.6453 264.887 72.7707 263.394 72.088C261.943 71.3627 260.066 71 257.762 71C254.391 71 251.66 71.9173 249.57 73.752C247.522 75.5867 246.412 78.616 246.242 82.84C246.114 86.6373 246.114 90.4347 246.242 94.232C246.412 98.4987 247.543 101.571 249.634 103.448C251.724 105.283 254.455 106.2 257.826 106.2C260.087 106.2 262.092 105.795 263.842 104.984C265.634 104.131 267.042 102.829 268.066 101.08C269.09 99.3307 269.602 97.112 269.602 94.424V91.736H260.002C259.575 91.736 259.212 91.608 258.914 91.352C258.658 91.0533 258.53 90.6693 258.53 90.2V88.152C258.53 87.6827 258.658 87.32 258.914 87.064C259.212 86.7653 259.575 86.616 260.002 86.616H274.466C274.935 86.616 275.298 86.7653 275.554 87.064C275.81 87.32 275.938 87.6827 275.938 88.152V94.296C275.938 97.7947 275.212 100.845 273.762 103.448C272.354 106.051 270.284 108.077 267.554 109.528C264.823 110.936 261.559 111.64 257.762 111.64ZM285.708 111C285.281 111 284.919 110.872 284.62 110.616C284.364 110.317 284.236 109.955 284.236 109.528V79.256C284.236 78.8293 284.364 78.4667 284.62 78.168C284.919 77.8693 285.281 77.72 285.708 77.72H288.652C289.079 77.72 289.441 77.8693 289.74 78.168C290.039 78.4667 290.188 78.8293 290.188 79.256V82.072C291.041 80.6213 292.215 79.5333 293.708 78.808C295.201 78.0827 296.993 77.72 299.084 77.72H301.644C302.071 77.72 302.412 77.8693 302.668 78.168C302.924 78.424 303.052 78.7653 303.052 79.192V81.816C303.052 82.2427 302.924 82.584 302.668 82.84C302.412 83.096 302.071 83.224 301.644 83.224H297.804C295.5 83.224 293.687 83.9067 292.364 85.272C291.041 86.5947 290.38 88.408 290.38 90.712V109.528C290.38 109.955 290.231 110.317 289.932 110.616C289.633 110.872 289.271 111 288.844 111H285.708ZM317.329 111.64C315.195 111.64 313.254 111.213 311.505 110.36C309.755 109.507 308.347 108.355 307.281 106.904C306.214 105.453 305.681 103.811 305.681 101.976C305.681 99.032 306.875 96.6853 309.265 94.936C311.654 93.1867 314.769 92.0347 318.609 91.48L328.145 90.136V88.28C328.145 86.232 327.547 84.632 326.353 83.48C325.201 82.328 323.302 81.752 320.657 81.752C318.737 81.752 317.179 82.136 315.985 82.904C314.833 83.672 314.022 84.6533 313.553 85.848C313.297 86.488 312.849 86.808 312.209 86.808H309.329C308.859 86.808 308.497 86.68 308.241 86.424C308.027 86.1253 307.921 85.784 307.921 85.4C307.921 84.76 308.155 83.9707 308.625 83.032C309.137 82.0933 309.905 81.176 310.929 80.28C311.953 79.384 313.254 78.6373 314.833 78.04C316.454 77.4 318.417 77.08 320.721 77.08C323.281 77.08 325.435 77.4213 327.185 78.104C328.934 78.744 330.299 79.6187 331.281 80.728C332.305 81.8373 333.03 83.096 333.457 84.504C333.926 85.912 334.161 87.3413 334.161 88.792V109.528C334.161 109.955 334.011 110.317 333.713 110.616C333.457 110.872 333.115 111 332.689 111H329.745C329.275 111 328.913 110.872 328.657 110.616C328.401 110.317 328.273 109.955 328.273 109.528V106.776C327.718 107.544 326.971 108.312 326.033 109.08C325.094 109.805 323.921 110.424 322.513 110.936C321.105 111.405 319.377 111.64 317.329 111.64ZM318.673 106.84C320.422 106.84 322.022 106.477 323.473 105.752C324.923 104.984 326.054 103.811 326.865 102.232C327.718 100.653 328.145 98.6693 328.145 96.28V94.488L320.721 95.576C317.691 96.0027 315.409 96.728 313.873 97.752C312.337 98.7333 311.569 99.992 311.569 101.528C311.569 102.723 311.91 103.725 312.593 104.536C313.318 105.304 314.214 105.88 315.281 106.264C316.39 106.648 317.521 106.84 318.673 106.84ZM344.897 123.16C344.47 123.16 344.108 123.011 343.809 122.712C343.553 122.456 343.425 122.115 343.425 121.688V79.192C343.425 78.7653 343.553 78.424 343.809 78.168C344.108 77.8693 344.47 77.72 344.897 77.72H347.841C348.268 77.72 348.609 77.8693 348.865 78.168C349.164 78.424 349.313 78.7653 349.313 79.192V82.008C350.337 80.6 351.702 79.4267 353.409 78.488C355.116 77.5493 357.249 77.08 359.809 77.08C362.198 77.08 364.225 77.4853 365.889 78.296C367.596 79.1067 368.982 80.216 370.049 81.624C371.158 83.032 371.99 84.632 372.545 86.424C373.1 88.216 373.398 90.136 373.441 92.184C373.484 92.8667 373.505 93.592 373.505 94.36C373.505 95.128 373.484 95.8533 373.441 96.536C373.398 98.5413 373.1 100.461 372.545 102.296C371.99 104.088 371.158 105.688 370.049 107.096C368.982 108.461 367.596 109.571 365.889 110.424C364.225 111.235 362.198 111.64 359.809 111.64C357.334 111.64 355.244 111.192 353.537 110.296C351.873 109.357 350.508 108.205 349.441 106.84V121.688C349.441 122.115 349.313 122.456 349.057 122.712C348.801 123.011 348.438 123.16 347.969 123.16H344.897ZM358.465 106.456C360.684 106.456 362.412 105.987 363.649 105.048C364.929 104.067 365.846 102.808 366.401 101.272C366.956 99.6933 367.276 98.008 367.361 96.216C367.404 94.9787 367.404 93.7413 367.361 92.504C367.276 90.712 366.956 89.048 366.401 87.512C365.846 85.9333 364.929 84.6747 363.649 83.736C362.412 82.7547 360.684 82.264 358.465 82.264C356.374 82.264 354.668 82.7547 353.345 83.736C352.065 84.7173 351.105 85.976 350.465 87.512C349.868 89.0053 349.526 90.5413 349.441 92.12C349.398 92.8027 349.377 93.6133 349.377 94.552C349.377 95.4907 349.398 96.3227 349.441 97.048C349.484 98.5413 349.825 100.013 350.465 101.464C351.148 102.915 352.15 104.109 353.473 105.048C354.796 105.987 356.46 106.456 358.465 106.456ZM383.022 111C382.595 111 382.233 110.872 381.934 110.616C381.678 110.317 381.55 109.955 381.55 109.528V67.032C381.55 66.6053 381.678 66.264 381.934 66.008C382.233 65.7093 382.595 65.56 383.022 65.56H386.222C386.691 65.56 387.054 65.7093 387.31 66.008C387.566 66.264 387.694 66.6053 387.694 67.032V81.944C388.846 80.4933 390.254 79.32 391.918 78.424C393.582 77.528 395.694 77.08 398.254 77.08C401.027 77.08 403.374 77.6987 405.294 78.936C407.257 80.1307 408.729 81.816 409.71 83.992C410.734 86.1253 411.246 88.6213 411.246 91.48V109.528C411.246 109.955 411.118 110.317 410.862 110.616C410.606 110.872 410.243 111 409.774 111H406.574C406.147 111 405.785 110.872 405.486 110.616C405.23 110.317 405.102 109.955 405.102 109.528V91.8C405.102 88.8133 404.377 86.488 402.926 84.824C401.475 83.1173 399.342 82.264 396.526 82.264C393.881 82.264 391.747 83.1173 390.126 84.824C388.505 86.488 387.694 88.8133 387.694 91.8V109.528C387.694 109.955 387.566 110.317 387.31 110.616C387.054 110.872 386.691 111 386.222 111H383.022ZM450.182 115.16C449.627 115.16 449.179 114.968 448.838 114.584C448.497 114.243 448.219 113.944 448.006 113.688L445.382 110.104C443.078 111.128 440.411 111.64 437.382 111.64C433.713 111.64 430.577 111.021 427.974 109.784C425.414 108.504 423.409 106.563 421.958 103.96C420.55 101.315 419.782 98.008 419.654 94.04C419.611 92.1627 419.59 90.3707 419.59 88.664C419.59 86.9147 419.611 85.1013 419.654 83.224C419.782 79.2987 420.593 76.0347 422.086 73.432C423.579 70.7867 425.627 68.824 428.23 67.544C430.875 66.2213 433.926 65.56 437.382 65.56C440.881 65.56 443.931 66.2213 446.534 67.544C449.179 68.824 451.249 70.7867 452.742 73.432C454.235 76.0347 455.025 79.2987 455.11 83.224C455.195 85.1013 455.238 86.9147 455.238 88.664C455.238 90.3707 455.195 92.1627 455.11 94.04C454.897 99.928 453.361 104.301 450.502 107.16L454.726 113.176C454.769 113.219 454.811 113.283 454.854 113.368C454.897 113.496 454.918 113.667 454.918 113.88C454.961 114.221 454.854 114.52 454.598 114.776C454.342 115.032 454.022 115.16 453.638 115.16H450.182ZM437.382 106.2C440.625 106.2 443.291 105.219 445.382 103.256C447.473 101.293 448.603 98.1147 448.774 93.72C448.859 91.8 448.902 90.0933 448.902 88.6C448.902 87.064 448.859 85.3573 448.774 83.48C448.689 80.536 448.134 78.1467 447.11 76.312C446.129 74.4773 444.806 73.1333 443.142 72.28C441.478 71.4267 439.558 71 437.382 71C435.291 71 433.393 71.4267 431.686 72.28C430.022 73.1333 428.699 74.4773 427.718 76.312C426.737 78.1467 426.182 80.536 426.054 83.48C426.011 85.3573 425.99 87.064 425.99 88.6C425.99 90.0933 426.011 91.8 426.054 93.72C426.225 98.1147 427.355 101.293 429.446 103.256C431.537 105.219 434.182 106.2 437.382 106.2ZM466.103 111C465.633 111 465.271 110.872 465.015 110.616C464.759 110.317 464.631 109.955 464.631 109.528V67.672C464.631 67.2453 464.759 66.904 465.015 66.648C465.271 66.3493 465.633 66.2 466.103 66.2H469.495C469.921 66.2 470.263 66.3493 470.519 66.648C470.775 66.904 470.903 67.2453 470.903 67.672V105.432H492.215C492.684 105.432 493.047 105.581 493.303 105.88C493.559 106.136 493.687 106.499 493.687 106.968V109.528C493.687 109.955 493.559 110.317 493.303 110.616C493.047 110.872 492.684 111 492.215 111H466.103ZM528.005 111.64C525.829 111.64 523.76 111.384 521.797 110.872C519.877 110.317 518.149 109.485 516.613 108.376C515.12 107.224 513.925 105.795 513.029 104.088C512.133 102.381 511.642 100.376 511.557 98.072C511.557 97.688 511.685 97.368 511.941 97.112C512.197 96.8133 512.538 96.664 512.965 96.664H516.421C516.89 96.664 517.253 96.8133 517.509 97.112C517.808 97.368 518 97.7093 518.085 98.136C518.256 100.056 518.81 101.613 519.749 102.808C520.688 103.96 521.882 104.813 523.333 105.368C524.784 105.923 526.384 106.2 528.133 106.2C531.376 106.2 533.85 105.133 535.557 103C537.264 100.867 538.117 98.0293 538.117 94.488V71.768H515.397C514.97 71.768 514.608 71.64 514.309 71.384C514.053 71.0853 513.925 70.7227 513.925 70.296V67.672C513.925 67.2453 514.053 66.904 514.309 66.648C514.608 66.3493 514.97 66.2 515.397 66.2H542.981C543.45 66.2 543.813 66.3493 544.069 66.648C544.368 66.904 544.517 67.2667 544.517 67.736V94.616C544.517 98.072 543.856 101.08 542.533 103.64C541.21 106.2 539.333 108.184 536.901 109.592C534.469 110.957 531.504 111.64 528.005 111.64ZM567.672 111.64C563.277 111.64 559.778 110.296 557.176 107.608C554.573 104.877 553.144 101.165 552.888 96.472C552.845 95.9173 552.824 95.2133 552.824 94.36C552.824 93.464 552.845 92.7387 552.888 92.184C553.058 89.1547 553.762 86.5093 555 84.248C556.237 81.944 557.922 80.1733 560.056 78.936C562.232 77.6987 564.77 77.08 567.672 77.08C570.914 77.08 573.624 77.7627 575.8 79.128C578.018 80.4933 579.704 82.4347 580.856 84.952C582.008 87.4693 582.583 90.4133 582.583 93.784V94.872C582.583 95.3413 582.434 95.704 582.136 95.96C581.88 96.216 581.538 96.344 581.112 96.344H558.968C558.968 96.3867 558.968 96.472 558.968 96.6C558.968 96.728 558.968 96.8347 558.968 96.92C559.053 98.6693 559.437 100.312 560.12 101.848C560.802 103.341 561.784 104.557 563.064 105.496C564.344 106.435 565.88 106.904 567.672 106.904C569.208 106.904 570.488 106.669 571.512 106.2C572.536 105.731 573.368 105.219 574.008 104.664C574.648 104.067 575.074 103.619 575.288 103.32C575.672 102.765 575.97 102.445 576.184 102.36C576.397 102.232 576.738 102.168 577.208 102.168H580.28C580.706 102.168 581.048 102.296 581.304 102.552C581.602 102.765 581.73 103.085 581.688 103.512C581.645 104.152 581.304 104.941 580.664 105.88C580.024 106.776 579.106 107.672 577.912 108.568C576.717 109.464 575.266 110.211 573.56 110.808C571.853 111.363 569.89 111.64 567.672 111.64ZM558.968 91.928H576.504V91.736C576.504 89.816 576.141 88.1093 575.416 86.616C574.733 85.1227 573.73 83.9493 572.408 83.096C571.085 82.2 569.506 81.752 567.672 81.752C565.837 81.752 564.258 82.2 562.936 83.096C561.656 83.9493 560.674 85.1227 559.992 86.616C559.309 88.1093 558.968 89.816 558.968 91.736V91.928ZM603.041 111C600.651 111 598.71 110.552 597.217 109.656C595.723 108.717 594.635 107.416 593.953 105.752C593.27 104.045 592.929 102.04 592.929 99.736V82.84H587.937C587.51 82.84 587.147 82.712 586.849 82.456C586.593 82.1573 586.465 81.7947 586.465 81.368V79.192C586.465 78.7653 586.593 78.424 586.849 78.168C587.147 77.8693 587.51 77.72 587.937 77.72H592.929V67.032C592.929 66.6053 593.057 66.264 593.312 66.008C593.611 65.7093 593.974 65.56 594.401 65.56H597.409C597.835 65.56 598.177 65.7093 598.433 66.008C598.731 66.264 598.881 66.6053 598.881 67.032V77.72H606.817C607.243 77.72 607.585 77.8693 607.841 78.168C608.139 78.424 608.289 78.7653 608.289 79.192V81.368C608.289 81.7947 608.139 82.1573 607.841 82.456C607.585 82.712 607.243 82.84 606.817 82.84H598.881V99.288C598.881 101.293 599.222 102.872 599.905 104.024C600.587 105.176 601.803 105.752 603.553 105.752H607.457C607.883 105.752 608.225 105.901 608.481 106.2C608.779 106.456 608.929 106.797 608.929 107.224V109.528C608.929 109.955 608.779 110.317 608.481 110.616C608.225 110.872 607.883 111 607.457 111H603.041ZM616.585 123.16C616.158 123.16 615.795 123.011 615.497 122.712C615.241 122.456 615.113 122.115 615.113 121.688V79.192C615.113 78.7653 615.241 78.424 615.497 78.168C615.795 77.8693 616.158 77.72 616.585 77.72H619.529C619.955 77.72 620.297 77.8693 620.553 78.168C620.851 78.424 621.001 78.7653 621.001 79.192V82.008C622.025 80.6 623.39 79.4267 625.097 78.488C626.803 77.5493 628.937 77.08 631.497 77.08C633.886 77.08 635.913 77.4853 637.577 78.296C639.283 79.1067 640.67 80.216 641.737 81.624C642.846 83.032 643.678 84.632 644.233 86.424C644.787 88.216 645.086 90.136 645.129 92.184C645.171 92.8667 645.193 93.592 645.193 94.36C645.193 95.128 645.171 95.8533 645.129 96.536C645.086 98.5413 644.787 100.461 644.233 102.296C643.678 104.088 642.846 105.688 641.737 107.096C640.67 108.461 639.283 109.571 637.577 110.424C635.913 111.235 633.886 111.64 631.497 111.64C629.022 111.64 626.931 111.192 625.225 110.296C623.561 109.357 622.195 108.205 621.129 106.84V121.688C621.129 122.115 621.001 122.456 620.745 122.712C620.489 123.011 620.126 123.16 619.657 123.16H616.585ZM630.153 106.456C632.371 106.456 634.099 105.987 635.337 105.048C636.617 104.067 637.534 102.808 638.089 101.272C638.643 99.6933 638.963 98.008 639.049 96.216C639.091 94.9787 639.091 93.7413 639.049 92.504C638.963 90.712 638.643 89.048 638.089 87.512C637.534 85.9333 636.617 84.6747 635.337 83.736C634.099 82.7547 632.371 82.264 630.153 82.264C628.062 82.264 626.355 82.7547 625.033 83.736C623.753 84.7173 622.793 85.976 622.153 87.512C621.555 89.0053 621.214 90.5413 621.129 92.12C621.086 92.8027 621.065 93.6133 621.065 94.552C621.065 95.4907 621.086 96.3227 621.129 97.048C621.171 98.5413 621.513 100.013 622.153 101.464C622.835 102.915 623.838 104.109 625.161 105.048C626.483 105.987 628.147 106.456 630.153 106.456ZM662.454 111.64C660.32 111.64 658.379 111.213 656.63 110.36C654.88 109.507 653.472 108.355 652.406 106.904C651.339 105.453 650.806 103.811 650.806 101.976C650.806 99.032 652 96.6853 654.39 94.936C656.779 93.1867 659.894 92.0347 663.734 91.48L673.27 90.136V88.28C673.27 86.232 672.672 84.632 671.478 83.48C670.326 82.328 668.427 81.752 665.782 81.752C663.862 81.752 662.304 82.136 661.11 82.904C659.958 83.672 659.147 84.6533 658.678 85.848C658.422 86.488 657.974 86.808 657.334 86.808H654.454C653.984 86.808 653.622 86.68 653.366 86.424C653.152 86.1253 653.046 85.784 653.046 85.4C653.046 84.76 653.28 83.9707 653.75 83.032C654.262 82.0933 655.03 81.176 656.054 80.28C657.078 79.384 658.379 78.6373 659.958 78.04C661.579 77.4 663.542 77.08 665.846 77.08C668.406 77.08 670.56 77.4213 672.31 78.104C674.059 78.744 675.424 79.6187 676.406 80.728C677.43 81.8373 678.155 83.096 678.582 84.504C679.051 85.912 679.286 87.3413 679.286 88.792V109.528C679.286 109.955 679.136 110.317 678.838 110.616C678.582 110.872 678.24 111 677.814 111H674.87C674.4 111 674.038 110.872 673.782 110.616C673.526 110.317 673.398 109.955 673.398 109.528V106.776C672.843 107.544 672.096 108.312 671.158 109.08C670.219 109.805 669.046 110.424 667.638 110.936C666.23 111.405 664.502 111.64 662.454 111.64ZM663.798 106.84C665.547 106.84 667.147 106.477 668.598 105.752C670.048 104.984 671.179 103.811 671.99 102.232C672.843 100.653 673.27 98.6693 673.27 96.28V94.488L665.846 95.576C662.816 96.0027 660.534 96.728 658.998 97.752C657.462 98.7333 656.694 99.992 656.694 101.528C656.694 102.723 657.035 103.725 657.718 104.536C658.443 105.304 659.339 105.88 660.406 106.264C661.515 106.648 662.646 106.84 663.798 106.84ZM701.926 111.64C698.897 111.64 696.273 111.064 694.054 109.912C691.878 108.717 690.193 107.032 688.998 104.856C687.803 102.637 687.163 99.992 687.078 96.92C687.035 96.28 687.014 95.4267 687.014 94.36C687.014 93.2933 687.035 92.44 687.078 91.8C687.163 88.728 687.803 86.104 688.998 83.928C690.193 81.7093 691.878 80.024 694.054 78.872C696.273 77.6773 698.897 77.08 701.926 77.08C704.401 77.08 706.513 77.4213 708.262 78.104C710.054 78.7867 711.526 79.6613 712.678 80.728C713.83 81.7947 714.683 82.9467 715.238 84.184C715.835 85.4213 716.155 86.5947 716.198 87.704C716.241 88.1307 716.113 88.472 715.814 88.728C715.515 88.984 715.153 89.112 714.726 89.112H711.654C711.227 89.112 710.907 89.0267 710.694 88.856C710.481 88.6427 710.267 88.3013 710.054 87.832C709.286 85.7413 708.241 84.2693 706.918 83.416C705.595 82.5627 703.953 82.136 701.99 82.136C699.43 82.136 697.339 82.9253 695.718 84.504C694.139 86.0827 693.286 88.6213 693.158 92.12C693.115 93.656 693.115 95.1493 693.158 96.6C693.286 100.141 694.139 102.701 695.718 104.28C697.339 105.816 699.43 106.584 701.99 106.584C703.953 106.584 705.595 106.157 706.918 105.304C708.241 104.451 709.286 102.979 710.054 100.888C710.267 100.419 710.481 100.099 710.694 99.928C710.907 99.7147 711.227 99.608 711.654 99.608H714.726C715.153 99.608 715.515 99.736 715.814 99.992C716.113 100.248 716.241 100.589 716.198 101.016C716.155 101.912 715.963 102.829 715.622 103.768C715.281 104.707 714.726 105.667 713.958 106.648C713.233 107.587 712.315 108.44 711.206 109.208C710.097 109.933 708.753 110.531 707.174 111C705.638 111.427 703.889 111.64 701.926 111.64ZM725.335 111C724.908 111 724.545 110.872 724.247 110.616C723.991 110.317 723.863 109.955 723.863 109.528V67.032C723.863 66.6053 723.991 66.264 724.247 66.008C724.545 65.7093 724.908 65.56 725.335 65.56H728.343C728.769 65.56 729.111 65.7093 729.367 66.008C729.665 66.264 729.815 66.6053 729.815 67.032V89.304L742.423 78.808C742.935 78.3813 743.319 78.104 743.575 77.976C743.873 77.8053 744.343 77.72 744.983 77.72H748.375C748.759 77.72 749.079 77.848 749.335 78.104C749.591 78.36 749.719 78.68 749.719 79.064C749.719 79.2347 749.655 79.4267 749.527 79.64C749.441 79.8533 749.249 80.0667 748.951 80.28L734.167 92.568L750.551 108.504C751.063 108.931 751.319 109.315 751.319 109.656C751.319 110.04 751.191 110.36 750.935 110.616C750.679 110.872 750.359 111 749.975 111H746.647C746.007 111 745.537 110.936 745.239 110.808C744.94 110.637 744.556 110.339 744.087 109.912L729.815 96.28V109.528C729.815 109.955 729.665 110.317 729.367 110.616C729.111 110.872 728.769 111 728.343 111H725.335Z" fill="#E10098"/>
<circle cx="120" cy="90" r="60" fill="#E10098"/>
<g clip-path="url(#clip1_2_2)">
<path fill-rule="evenodd" clip-rule="evenodd" d="M119.767 61.5942L144.164 75.6803V103.853L119.767 117.939L95.3686 103.853V75.6803L119.767 61.5942ZM98.1061 77.2608V97.9541L116.027 66.9142L98.1061 77.2608ZM119.767 65.9122L99.1081 101.694H140.425L119.767 65.9122ZM137.687 104.431H101.846L119.767 114.778L137.687 104.431ZM141.427 97.9541L123.506 66.9142L141.427 77.2608V97.9541Z" fill="white"/>
<path d="M119.767 68.9403C122.951 68.9403 125.532 66.359 125.532 63.1747C125.532 59.9905 122.951 57.4091 119.767 57.4091C116.582 57.4091 114.001 59.9905 114.001 63.1747C114.001 66.359 116.582 68.9403 119.767 68.9403Z" fill="white"/>
<path d="M142.796 82.2363C145.98 82.2363 148.561 79.6549 148.561 76.4706C148.561 73.2864 145.98 70.705 142.796 70.705C139.611 70.705 137.03 73.2864 137.03 76.4706C137.03 79.6549 139.611 82.2363 142.796 82.2363Z" fill="white"/>
<path d="M142.796 108.828C145.98 108.828 148.561 106.247 148.561 103.062C148.561 99.8782 145.98 97.2968 142.796 97.2968C139.611 97.2968 137.03 99.8782 137.03 103.062C137.03 106.247 139.611 108.828 142.796 108.828Z" fill="white"/>
<path d="M119.767 122.124C122.951 122.124 125.532 119.543 125.532 116.358C125.532 113.174 122.951 110.593 119.767 110.593C116.582 110.593 114.001 113.174 114.001 116.358C114.001 119.543 116.582 122.124 119.767 122.124Z" fill="white"/>
<path d="M96.7341 108.828C99.9184 108.828 102.5 106.247 102.5 103.062C102.5 99.8782 99.9184 97.2968 96.7341 97.2968C93.5499 97.2968 90.9685 99.8782 90.9685 103.062C90.9685 106.247 93.5499 108.828 96.7341 108.828Z" fill="white"/>
<path d="M96.7341 82.2363C99.9184 82.2363 102.5 79.6549 102.5 76.4706C102.5 73.2864 99.9184 70.705 96.7341 70.705C93.5499 70.705 90.9685 73.2864 90.9685 76.4706C90.9685 79.6549 93.5499 82.2363 96.7341 82.2363Z" fill="white"/>
</g>
</g>
<defs>
<clipPath id="clip0_2_2">
<rect width="830" height="180" fill="white"/>
</clipPath>
<clipPath id="clip1_2_2">
<rect width="65.3697" height="65.3697" fill="white" transform="translate(87.0817 57.0817)"/>
</clipPath>
</defs>
</svg>
