<svg width="830" height="360" viewBox="0 0 830 360" fill="none" xmlns="http://www.w3.org/2000/svg">
<path d="M157.232 315.72C153.008 315.72 149.408 314.928 146.432 313.344C143.504 311.76 141.248 309.528 139.664 306.648C138.128 303.768 137.264 300.384 137.072 296.496C137.024 294.384 137 292.152 137 289.8C137 287.4 137.024 285.12 137.072 282.96C137.264 279.072 138.128 275.712 139.664 272.88C141.248 270.048 143.528 267.84 146.504 266.256C149.48 264.672 153.056 263.88 157.232 263.88C160.64 263.88 163.592 264.36 166.088 265.32C168.584 266.28 170.624 267.504 172.208 268.992C173.84 270.432 175.04 271.944 175.808 273.528C176.624 275.112 177.056 276.504 177.104 277.704C177.152 278.136 177.032 278.496 176.744 278.784C176.456 279.024 176.072 279.144 175.592 279.144H171.344C170.864 279.144 170.504 279.048 170.264 278.856C170.072 278.664 169.88 278.328 169.688 277.848C169.256 276.6 168.536 275.376 167.528 274.176C166.568 272.976 165.248 271.992 163.568 271.224C161.936 270.408 159.824 270 157.232 270C153.44 270 150.368 271.032 148.016 273.096C145.712 275.16 144.464 278.568 144.272 283.32C144.128 287.592 144.128 291.864 144.272 296.136C144.464 300.936 145.736 304.392 148.088 306.504C150.44 308.568 153.512 309.6 157.304 309.6C159.848 309.6 162.104 309.144 164.072 308.232C166.088 307.272 167.672 305.808 168.824 303.84C169.976 301.872 170.552 299.376 170.552 296.352V293.328H159.752C159.272 293.328 158.864 293.184 158.528 292.896C158.24 292.56 158.096 292.128 158.096 291.6V289.296C158.096 288.768 158.24 288.36 158.528 288.072C158.864 287.736 159.272 287.568 159.752 287.568H176.024C176.552 287.568 176.96 287.736 177.248 288.072C177.536 288.36 177.68 288.768 177.68 289.296V296.208C177.68 300.144 176.864 303.576 175.232 306.504C173.648 309.432 171.32 311.712 168.248 313.344C165.176 314.928 161.504 315.72 157.232 315.72ZM188.672 315C188.192 315 187.784 314.856 187.448 314.568C187.16 314.232 187.016 313.824 187.016 313.344V279.288C187.016 278.808 187.16 278.4 187.448 278.064C187.784 277.728 188.192 277.56 188.672 277.56H191.984C192.464 277.56 192.872 277.728 193.208 278.064C193.544 278.4 193.712 278.808 193.712 279.288V282.456C194.672 280.824 195.992 279.6 197.672 278.784C199.352 277.968 201.368 277.56 203.72 277.56H206.6C207.08 277.56 207.464 277.728 207.752 278.064C208.04 278.352 208.184 278.736 208.184 279.216V282.168C208.184 282.648 208.04 283.032 207.752 283.32C207.464 283.608 207.08 283.752 206.6 283.752H202.28C199.688 283.752 197.648 284.52 196.16 286.056C194.672 287.544 193.928 289.584 193.928 292.176V313.344C193.928 313.824 193.76 314.232 193.424 314.568C193.088 314.856 192.68 315 192.2 315H188.672ZM224.245 315.72C221.845 315.72 219.661 315.24 217.693 314.28C215.725 313.32 214.141 312.024 212.941 310.392C211.741 308.76 211.141 306.912 211.141 304.848C211.141 301.536 212.485 298.896 215.173 296.928C217.861 294.96 221.365 293.664 225.685 293.04L236.413 291.528V289.44C236.413 287.136 235.741 285.336 234.397 284.04C233.101 282.744 230.965 282.096 227.989 282.096C225.829 282.096 224.077 282.528 222.733 283.392C221.437 284.256 220.525 285.36 219.997 286.704C219.709 287.424 219.205 287.784 218.485 287.784H215.245C214.717 287.784 214.309 287.64 214.021 287.352C213.781 287.016 213.661 286.632 213.661 286.2C213.661 285.48 213.925 284.592 214.453 283.536C215.029 282.48 215.893 281.448 217.045 280.44C218.197 279.432 219.661 278.592 221.437 277.92C223.261 277.2 225.469 276.84 228.061 276.84C230.941 276.84 233.365 277.224 235.333 277.992C237.301 278.712 238.837 279.696 239.941 280.944C241.093 282.192 241.909 283.608 242.389 285.192C242.917 286.776 243.181 288.384 243.181 290.016V313.344C243.181 313.824 243.013 314.232 242.677 314.568C242.389 314.856 242.005 315 241.525 315H238.213C237.685 315 237.277 314.856 236.989 314.568C236.701 314.232 236.557 313.824 236.557 313.344V310.248C235.933 311.112 235.093 311.976 234.037 312.84C232.981 313.656 231.661 314.352 230.077 314.928C228.493 315.456 226.549 315.72 224.245 315.72ZM225.757 310.32C227.725 310.32 229.525 309.912 231.157 309.096C232.789 308.232 234.061 306.912 234.973 305.136C235.933 303.36 236.413 301.128 236.413 298.44V296.424L228.061 297.648C224.653 298.128 222.085 298.944 220.357 300.096C218.629 301.2 217.765 302.616 217.765 304.344C217.765 305.688 218.149 306.816 218.917 307.728C219.733 308.592 220.741 309.24 221.941 309.672C223.189 310.104 224.461 310.32 225.757 310.32ZM255.259 328.68C254.779 328.68 254.371 328.512 254.035 328.176C253.747 327.888 253.603 327.504 253.603 327.024V279.216C253.603 278.736 253.747 278.352 254.035 278.064C254.371 277.728 254.779 277.56 255.259 277.56H258.571C259.051 277.56 259.435 277.728 259.723 278.064C260.059 278.352 260.227 278.736 260.227 279.216V282.384C261.379 280.8 262.915 279.48 264.835 278.424C266.755 277.368 269.155 276.84 272.035 276.84C274.723 276.84 277.003 277.296 278.875 278.208C280.795 279.12 282.355 280.368 283.555 281.952C284.803 283.536 285.739 285.336 286.363 287.352C286.987 289.368 287.323 291.528 287.371 293.832C287.419 294.6 287.443 295.416 287.443 296.28C287.443 297.144 287.419 297.96 287.371 298.728C287.323 300.984 286.987 303.144 286.363 305.208C285.739 307.224 284.803 309.024 283.555 310.608C282.355 312.144 280.795 313.392 278.875 314.352C277.003 315.264 274.723 315.72 272.035 315.72C269.251 315.72 266.899 315.216 264.979 314.208C263.107 313.152 261.571 311.856 260.371 310.32V327.024C260.371 327.504 260.227 327.888 259.939 328.176C259.651 328.512 259.243 328.68 258.715 328.68H255.259ZM270.523 309.888C273.019 309.888 274.963 309.36 276.355 308.304C277.795 307.2 278.827 305.784 279.451 304.056C280.075 302.28 280.435 300.384 280.531 298.368C280.579 296.976 280.579 295.584 280.531 294.192C280.435 292.176 280.075 290.304 279.451 288.576C278.827 286.8 277.795 285.384 276.355 284.328C274.963 283.224 273.019 282.672 270.523 282.672C268.171 282.672 266.251 283.224 264.763 284.328C263.323 285.432 262.243 286.848 261.523 288.576C260.851 290.256 260.467 291.984 260.371 293.76C260.323 294.528 260.299 295.44 260.299 296.496C260.299 297.552 260.323 298.488 260.371 299.304C260.419 300.984 260.803 302.64 261.523 304.272C262.291 305.904 263.419 307.248 264.907 308.304C266.395 309.36 268.267 309.888 270.523 309.888ZM298.15 315C297.67 315 297.262 314.856 296.926 314.568C296.638 314.232 296.494 313.824 296.494 313.344V265.536C296.494 265.056 296.638 264.672 296.926 264.384C297.262 264.048 297.67 263.88 298.15 263.88H301.75C302.278 263.88 302.686 264.048 302.974 264.384C303.262 264.672 303.406 265.056 303.406 265.536V282.312C304.702 280.68 306.286 279.36 308.158 278.352C310.03 277.344 312.406 276.84 315.286 276.84C318.406 276.84 321.046 277.536 323.206 278.928C325.414 280.272 327.07 282.168 328.174 284.616C329.326 287.016 329.902 289.824 329.902 293.04V313.344C329.902 313.824 329.758 314.232 329.47 314.568C329.182 314.856 328.774 315 328.246 315H324.646C324.166 315 323.758 314.856 323.422 314.568C323.134 314.232 322.99 313.824 322.99 313.344V293.4C322.99 290.04 322.174 287.424 320.542 285.552C318.91 283.632 316.51 282.672 313.342 282.672C310.366 282.672 307.966 283.632 306.142 285.552C304.318 287.424 303.406 290.04 303.406 293.4V313.344C303.406 313.824 303.262 314.232 302.974 314.568C302.686 314.856 302.278 315 301.75 315H298.15ZM373.705 319.68C373.081 319.68 372.577 319.464 372.193 319.032C371.809 318.648 371.497 318.312 371.257 318.024L368.305 313.992C365.713 315.144 362.713 315.72 359.305 315.72C355.177 315.72 351.649 315.024 348.721 313.632C345.841 312.192 343.585 310.008 341.953 307.08C340.369 304.104 339.505 300.384 339.361 295.92C339.313 293.808 339.289 291.792 339.289 289.872C339.289 287.904 339.313 285.864 339.361 283.752C339.505 279.336 340.417 275.664 342.097 272.736C343.777 269.76 346.081 267.552 349.009 266.112C351.985 264.624 355.417 263.88 359.305 263.88C363.241 263.88 366.673 264.624 369.601 266.112C372.577 267.552 374.905 269.76 376.585 272.736C378.265 275.664 379.153 279.336 379.249 283.752C379.345 285.864 379.393 287.904 379.393 289.872C379.393 291.792 379.345 293.808 379.249 295.92C379.009 302.544 377.281 307.464 374.065 310.68L378.817 317.448C378.865 317.496 378.913 317.568 378.961 317.664C379.009 317.808 379.033 318 379.033 318.24C379.081 318.624 378.961 318.96 378.673 319.248C378.385 319.536 378.025 319.68 377.593 319.68H373.705ZM359.305 309.6C362.953 309.6 365.953 308.496 368.305 306.288C370.657 304.08 371.929 300.504 372.121 295.56C372.217 293.4 372.265 291.48 372.265 289.8C372.265 288.072 372.217 286.152 372.121 284.04C372.025 280.728 371.401 278.04 370.249 275.976C369.145 273.912 367.657 272.4 365.785 271.44C363.913 270.48 361.753 270 359.305 270C356.953 270 354.817 270.48 352.897 271.44C351.025 272.4 349.537 273.912 348.433 275.976C347.329 278.04 346.705 280.728 346.561 284.04C346.513 286.152 346.489 288.072 346.489 289.8C346.489 291.48 346.513 293.4 346.561 295.56C346.753 300.504 348.025 304.08 350.377 306.288C352.729 308.496 355.705 309.6 359.305 309.6ZM391.615 315C391.087 315 390.679 314.856 390.391 314.568C390.103 314.232 389.959 313.824 389.959 313.344V266.256C389.959 265.776 390.103 265.392 390.391 265.104C390.679 264.768 391.087 264.6 391.615 264.6H395.431C395.911 264.6 396.295 264.768 396.583 265.104C396.871 265.392 397.015 265.776 397.015 266.256V308.736H420.991C421.519 308.736 421.927 308.904 422.215 309.24C422.503 309.528 422.647 309.936 422.647 310.464V313.344C422.647 313.824 422.503 314.232 422.215 314.568C421.927 314.856 421.519 315 420.991 315H391.615ZM461.256 315.72C458.808 315.72 456.48 315.432 454.272 314.856C452.112 314.232 450.168 313.296 448.44 312.048C446.76 310.752 445.416 309.144 444.408 307.224C443.4 305.304 442.848 303.048 442.752 300.456C442.752 300.024 442.896 299.664 443.184 299.376C443.472 299.04 443.856 298.872 444.336 298.872H448.224C448.752 298.872 449.16 299.04 449.448 299.376C449.784 299.664 450 300.048 450.096 300.528C450.288 302.688 450.912 304.44 451.968 305.784C453.024 307.08 454.368 308.04 456 308.664C457.632 309.288 459.432 309.6 461.4 309.6C465.048 309.6 467.832 308.4 469.752 306C471.672 303.6 472.632 300.408 472.632 296.424V270.864H447.072C446.592 270.864 446.184 270.72 445.848 270.432C445.56 270.096 445.416 269.688 445.416 269.208V266.256C445.416 265.776 445.56 265.392 445.848 265.104C446.184 264.768 446.592 264.6 447.072 264.6H478.104C478.632 264.6 479.04 264.768 479.328 265.104C479.664 265.392 479.832 265.8 479.832 266.328V296.568C479.832 300.456 479.088 303.84 477.6 306.72C476.112 309.6 474 311.832 471.264 313.416C468.528 314.952 465.192 315.72 461.256 315.72ZM505.88 315.72C500.936 315.72 497 314.208 494.072 311.184C491.144 308.112 489.536 303.936 489.248 298.656C489.2 298.032 489.176 297.24 489.176 296.28C489.176 295.272 489.2 294.456 489.248 293.832C489.44 290.424 490.232 287.448 491.624 284.904C493.016 282.312 494.912 280.32 497.312 278.928C499.76 277.536 502.616 276.84 505.88 276.84C509.528 276.84 512.576 277.608 515.024 279.144C517.52 280.68 519.416 282.864 520.712 285.696C522.008 288.528 522.656 291.84 522.656 295.632V296.856C522.656 297.384 522.488 297.792 522.152 298.08C521.864 298.368 521.48 298.512 521 298.512H496.088C496.088 298.56 496.088 298.656 496.088 298.8C496.088 298.944 496.088 299.064 496.088 299.16C496.184 301.128 496.616 302.976 497.384 304.704C498.152 306.384 499.256 307.752 500.696 308.808C502.136 309.864 503.864 310.392 505.88 310.392C507.608 310.392 509.048 310.128 510.2 309.6C511.352 309.072 512.288 308.496 513.008 307.872C513.728 307.2 514.208 306.696 514.448 306.36C514.88 305.736 515.216 305.376 515.456 305.28C515.696 305.136 516.08 305.064 516.608 305.064H520.064C520.544 305.064 520.928 305.208 521.216 305.496C521.552 305.736 521.696 306.096 521.648 306.576C521.6 307.296 521.216 308.184 520.496 309.24C519.776 310.248 518.744 311.256 517.4 312.264C516.056 313.272 514.424 314.112 512.504 314.784C510.584 315.408 508.376 315.72 505.88 315.72ZM496.088 293.544H515.816V293.328C515.816 291.168 515.408 289.248 514.592 287.568C513.824 285.888 512.696 284.568 511.208 283.608C509.72 282.6 507.944 282.096 505.88 282.096C503.816 282.096 502.04 282.6 500.552 283.608C499.112 284.568 498.008 285.888 497.24 287.568C496.472 289.248 496.088 291.168 496.088 293.328V293.544ZM545.671 315C542.983 315 540.799 314.496 539.119 313.488C537.439 312.432 536.215 310.968 535.447 309.096C534.679 307.176 534.295 304.92 534.295 302.328V283.32H528.679C528.199 283.32 527.791 283.176 527.455 282.888C527.167 282.552 527.023 282.144 527.023 281.664V279.216C527.023 278.736 527.167 278.352 527.455 278.064C527.791 277.728 528.199 277.56 528.679 277.56H534.295V265.536C534.295 265.056 534.439 264.672 534.727 264.384C535.063 264.048 535.471 263.88 535.951 263.88H539.335C539.815 263.88 540.199 264.048 540.487 264.384C540.823 264.672 540.991 265.056 540.991 265.536V277.56H549.919C550.399 277.56 550.783 277.728 551.071 278.064C551.407 278.352 551.575 278.736 551.575 279.216V281.664C551.575 282.144 551.407 282.552 551.071 282.888C550.783 283.176 550.399 283.32 549.919 283.32H540.991V301.824C540.991 304.08 541.375 305.856 542.143 307.152C542.911 308.448 544.279 309.096 546.247 309.096H550.639C551.119 309.096 551.503 309.264 551.791 309.6C552.127 309.888 552.295 310.272 552.295 310.752V313.344C552.295 313.824 552.127 314.232 551.791 314.568C551.503 314.856 551.119 315 550.639 315H545.671ZM560.908 328.68C560.428 328.68 560.02 328.512 559.684 328.176C559.396 327.888 559.252 327.504 559.252 327.024V279.216C559.252 278.736 559.396 278.352 559.684 278.064C560.02 277.728 560.428 277.56 560.908 277.56H564.22C564.7 277.56 565.084 277.728 565.372 278.064C565.708 278.352 565.876 278.736 565.876 279.216V282.384C567.028 280.8 568.564 279.48 570.484 278.424C572.404 277.368 574.804 276.84 577.684 276.84C580.372 276.84 582.652 277.296 584.524 278.208C586.444 279.12 588.004 280.368 589.204 281.952C590.452 283.536 591.388 285.336 592.012 287.352C592.636 289.368 592.972 291.528 593.02 293.832C593.068 294.6 593.092 295.416 593.092 296.28C593.092 297.144 593.068 297.96 593.02 298.728C592.972 300.984 592.636 303.144 592.012 305.208C591.388 307.224 590.452 309.024 589.204 310.608C588.004 312.144 586.444 313.392 584.524 314.352C582.652 315.264 580.372 315.72 577.684 315.72C574.9 315.72 572.548 315.216 570.628 314.208C568.756 313.152 567.22 311.856 566.02 310.32V327.024C566.02 327.504 565.876 327.888 565.588 328.176C565.3 328.512 564.892 328.68 564.364 328.68H560.908ZM576.172 309.888C578.668 309.888 580.612 309.36 582.004 308.304C583.444 307.2 584.476 305.784 585.1 304.056C585.724 302.28 586.084 300.384 586.18 298.368C586.228 296.976 586.228 295.584 586.18 294.192C586.084 292.176 585.724 290.304 585.1 288.576C584.476 286.8 583.444 285.384 582.004 284.328C580.612 283.224 578.668 282.672 576.172 282.672C573.82 282.672 571.9 283.224 570.412 284.328C568.972 285.432 567.892 286.848 567.172 288.576C566.5 290.256 566.116 291.984 566.02 293.76C565.972 294.528 565.948 295.44 565.948 296.496C565.948 297.552 565.972 298.488 566.02 299.304C566.068 300.984 566.452 302.64 567.172 304.272C567.94 305.904 569.068 307.248 570.556 308.304C572.044 309.36 573.916 309.888 576.172 309.888ZM612.51 315.72C610.11 315.72 607.926 315.24 605.958 314.28C603.99 313.32 602.406 312.024 601.206 310.392C600.006 308.76 599.406 306.912 599.406 304.848C599.406 301.536 600.75 298.896 603.438 296.928C606.126 294.96 609.63 293.664 613.95 293.04L624.678 291.528V289.44C624.678 287.136 624.006 285.336 622.662 284.04C621.366 282.744 619.23 282.096 616.254 282.096C614.094 282.096 612.342 282.528 610.998 283.392C609.702 284.256 608.79 285.36 608.262 286.704C607.974 287.424 607.47 287.784 606.75 287.784H603.51C602.982 287.784 602.574 287.64 602.286 287.352C602.046 287.016 601.926 286.632 601.926 286.2C601.926 285.48 602.19 284.592 602.718 283.536C603.294 282.48 604.158 281.448 605.31 280.44C606.462 279.432 607.926 278.592 609.702 277.92C611.526 277.2 613.734 276.84 616.326 276.84C619.206 276.84 621.63 277.224 623.598 277.992C625.566 278.712 627.102 279.696 628.206 280.944C629.358 282.192 630.174 283.608 630.654 285.192C631.182 286.776 631.446 288.384 631.446 290.016V313.344C631.446 313.824 631.278 314.232 630.942 314.568C630.654 314.856 630.27 315 629.79 315H626.478C625.95 315 625.542 314.856 625.254 314.568C624.966 314.232 624.822 313.824 624.822 313.344V310.248C624.198 311.112 623.358 311.976 622.302 312.84C621.246 313.656 619.926 314.352 618.342 314.928C616.758 315.456 614.814 315.72 612.51 315.72ZM614.022 310.32C615.99 310.32 617.79 309.912 619.422 309.096C621.054 308.232 622.326 306.912 623.238 305.136C624.198 303.36 624.678 301.128 624.678 298.44V296.424L616.326 297.648C612.918 298.128 610.35 298.944 608.622 300.096C606.894 301.2 606.03 302.616 606.03 304.344C606.03 305.688 606.414 306.816 607.182 307.728C607.998 308.592 609.006 309.24 610.206 309.672C611.454 310.104 612.726 310.32 614.022 310.32ZM656.917 315.72C653.509 315.72 650.557 315.072 648.061 313.776C645.613 312.432 643.717 310.536 642.373 308.088C641.029 305.592 640.309 302.616 640.213 299.16C640.165 298.44 640.141 297.48 640.141 296.28C640.141 295.08 640.165 294.12 640.213 293.4C640.309 289.944 641.029 286.992 642.373 284.544C643.717 282.048 645.613 280.152 648.061 278.856C650.557 277.512 653.509 276.84 656.917 276.84C659.701 276.84 662.077 277.224 664.045 277.992C666.061 278.76 667.717 279.744 669.013 280.944C670.309 282.144 671.269 283.44 671.893 284.832C672.565 286.224 672.925 287.544 672.973 288.792C673.021 289.272 672.877 289.656 672.541 289.944C672.205 290.232 671.797 290.376 671.317 290.376H667.861C667.381 290.376 667.021 290.28 666.781 290.088C666.541 289.848 666.301 289.464 666.061 288.936C665.197 286.584 664.021 284.928 662.533 283.968C661.045 283.008 659.197 282.528 656.989 282.528C654.109 282.528 651.757 283.416 649.933 285.192C648.157 286.968 647.197 289.824 647.053 293.76C647.005 295.488 647.005 297.168 647.053 298.8C647.197 302.784 648.157 305.664 649.933 307.44C651.757 309.168 654.109 310.032 656.989 310.032C659.197 310.032 661.045 309.552 662.533 308.592C664.021 307.632 665.197 305.976 666.061 303.624C666.301 303.096 666.541 302.736 666.781 302.544C667.021 302.304 667.381 302.184 667.861 302.184H671.317C671.797 302.184 672.205 302.328 672.541 302.616C672.877 302.904 673.021 303.288 672.973 303.768C672.925 304.776 672.709 305.808 672.325 306.864C671.941 307.92 671.317 309 670.453 310.104C669.637 311.16 668.605 312.12 667.357 312.984C666.109 313.8 664.597 314.472 662.821 315C661.093 315.48 659.125 315.72 656.917 315.72ZM683.251 315C682.771 315 682.363 314.856 682.027 314.568C681.739 314.232 681.595 313.824 681.595 313.344V265.536C681.595 265.056 681.739 264.672 682.027 264.384C682.363 264.048 682.771 263.88 683.251 263.88H686.635C687.115 263.88 687.499 264.048 687.787 264.384C688.123 264.672 688.291 265.056 688.291 265.536V290.592L702.475 278.784C703.051 278.304 703.483 277.992 703.771 277.848C704.107 277.656 704.635 277.56 705.355 277.56H709.171C709.603 277.56 709.963 277.704 710.251 277.992C710.539 278.28 710.683 278.64 710.683 279.072C710.683 279.264 710.611 279.48 710.467 279.72C710.371 279.96 710.155 280.2 709.819 280.44L693.187 294.264L711.619 312.192C712.195 312.672 712.483 313.104 712.483 313.488C712.483 313.92 712.339 314.28 712.051 314.568C711.763 314.856 711.403 315 710.971 315H707.227C706.507 315 705.979 314.928 705.643 314.784C705.307 314.592 704.875 314.256 704.347 313.776L688.291 298.44V313.344C688.291 313.824 688.123 314.232 687.787 314.568C687.499 314.856 687.115 315 686.635 315H683.251Z" fill="#E10098"/>
<circle cx="415" cy="140" r="90" fill="#E10098"/>
<g clip-path="url(#clip0_2_2)">
<path fill-rule="evenodd" clip-rule="evenodd" d="M414.65 97.3913L451.247 118.52V160.779L414.65 181.908L378.053 160.779V118.52L414.65 97.3913ZM382.159 120.891V151.931L409.041 105.371L382.159 120.891ZM414.65 103.868L383.662 157.54H445.637L414.65 103.868ZM441.531 161.647H387.768L414.65 177.167L441.531 161.647ZM447.14 151.931L420.259 105.371L447.14 120.891V151.931Z" fill="white"/>
<path d="M414.65 108.41C419.426 108.41 423.298 104.538 423.298 99.7621C423.298 94.9857 419.426 91.1137 414.65 91.1137C409.873 91.1137 406.001 94.9857 406.001 99.7621C406.001 104.538 409.873 108.41 414.65 108.41Z" fill="white"/>
<path d="M449.194 128.354C453.97 128.354 457.842 124.482 457.842 119.706C457.842 114.93 453.97 111.058 449.194 111.058C444.417 111.058 440.545 114.93 440.545 119.706C440.545 124.482 444.417 128.354 449.194 128.354Z" fill="white"/>
<path d="M449.194 168.242C453.97 168.242 457.842 164.37 457.842 159.594C457.842 154.817 453.97 150.945 449.194 150.945C444.417 150.945 440.545 154.817 440.545 159.594C440.545 164.37 444.417 168.242 449.194 168.242Z" fill="white"/>
<path d="M414.65 188.186C419.426 188.186 423.298 184.314 423.298 179.537C423.298 174.761 419.426 170.889 414.65 170.889C409.873 170.889 406.001 174.761 406.001 179.537C406.001 184.314 409.873 188.186 414.65 188.186Z" fill="white"/>
<path d="M380.101 168.242C384.878 168.242 388.75 164.37 388.75 159.594C388.75 154.817 384.878 150.945 380.101 150.945C375.325 150.945 371.453 154.817 371.453 159.594C371.453 164.37 375.325 168.242 380.101 168.242Z" fill="white"/>
<path d="M380.101 128.354C384.878 128.354 388.75 124.482 388.75 119.706C388.75 114.93 384.878 111.058 380.101 111.058C375.325 111.058 371.453 114.93 371.453 119.706C371.453 124.482 375.325 128.354 380.101 128.354Z" fill="white"/>
</g>
<defs>
<clipPath id="clip0_2_2">
<rect width="98.0545" height="98.0545" fill="white" transform="translate(365.623 90.6225)"/>
</clipPath>
</defs>
</svg>
